<?xml version="1.0" encoding="UTF-8"?>
<svg xmlns="http://www.w3.org/2000/svg" xmlns:xlink="http://www.w3.org/1999/xlink" width="854" height="480" viewBox="0 0 854 480">
<defs>
<g>
<g id="glyph-0-0">
<path d="M 8.308594 -3.171875 C 8.308594 -2.253906 8 -1.46875 7.390625 -0.8125 C 6.78125 -0.160156 6.003906 0.167969 5.070312 0.167969 C 4.652344 0.167969 4.316406 0.125 4.054688 0.0429688 C 3.796875 -0.0429688 3.582031 -0.144531 3.410156 -0.265625 L 3.359375 -0.265625 L 3.359375 1.5625 C 3.359375 1.714844 3.394531 1.847656 3.460938 1.960938 C 3.527344 2.074219 3.621094 2.15625 3.742188 2.207031 C 3.859375 2.253906 4.027344 2.296875 4.242188 2.335938 C 4.457031 2.375 4.636719 2.398438 4.777344 2.410156 L 4.777344 2.890625 L 0.0703125 2.890625 L 0.0703125 2.410156 C 0.179688 2.398438 0.316406 2.382812 0.480469 2.359375 C 0.648438 2.335938 0.769531 2.3125 0.851562 2.285156 C 0.992188 2.238281 1.085938 2.15625 1.136719 2.039062 C 1.1875 1.925781 1.210938 1.792969 1.210938 1.648438 L 1.210938 -5.011719 C 1.199219 -5.15625 1.164062 -5.28125 1.109375 -5.390625 C 1.054688 -5.5 0.96875 -5.59375 0.851562 -5.675781 C 0.765625 -5.734375 0.652344 -5.78125 0.507812 -5.816406 C 0.363281 -5.855469 0.222656 -5.878906 0.0859375 -5.890625 L 0.0859375 -6.367188 L 3.261719 -6.535156 L 3.359375 -6.453125 L 3.359375 -5.730469 L 3.410156 -5.714844 C 3.699219 -6.007812 4.015625 -6.234375 4.363281 -6.394531 C 4.710938 -6.554688 5.058594 -6.632812 5.402344 -6.632812 C 6.296875 -6.632812 7.007812 -6.316406 7.527344 -5.679688 C 8.046875 -5.042969 8.308594 -4.207031 8.308594 -3.171875 M 5.96875 -3.144531 C 5.96875 -3.46875 5.945312 -3.78125 5.898438 -4.078125 C 5.851562 -4.375 5.765625 -4.640625 5.644531 -4.875 C 5.527344 -5.109375 5.375 -5.296875 5.179688 -5.4375 C 4.988281 -5.574219 4.753906 -5.644531 4.476562 -5.644531 C 4.195312 -5.644531 3.96875 -5.59375 3.800781 -5.496094 C 3.632812 -5.398438 3.484375 -5.273438 3.359375 -5.117188 L 3.359375 -1.425781 C 3.386719 -1.339844 3.433594 -1.226562 3.507812 -1.089844 C 3.582031 -0.953125 3.65625 -0.84375 3.730469 -0.761719 C 3.835938 -0.644531 3.960938 -0.558594 4.101562 -0.5 C 4.238281 -0.445312 4.390625 -0.417969 4.554688 -0.417969 C 4.984375 -0.417969 5.324219 -0.648438 5.582031 -1.109375 C 5.839844 -1.570312 5.96875 -2.25 5.96875 -3.144531 Z "/>
</g>
<g id="glyph-0-1">
<path d="M 7.375 -1.554688 C 7.222656 -1.308594 7.039062 -1.074219 6.824219 -0.855469 C 6.609375 -0.636719 6.367188 -0.449219 6.09375 -0.292969 C 5.804688 -0.128906 5.507812 -0.00390625 5.210938 0.0820312 C 4.914062 0.164062 4.574219 0.207031 4.1875 0.207031 C 3.542969 0.207031 2.988281 0.117188 2.523438 -0.0664062 C 2.054688 -0.246094 1.671875 -0.492188 1.367188 -0.800781 C 1.0625 -1.109375 0.835938 -1.472656 0.6875 -1.890625 C 0.539062 -2.308594 0.460938 -2.765625 0.460938 -3.253906 C 0.460938 -3.699219 0.542969 -4.121094 0.707031 -4.527344 C 0.867188 -4.933594 1.101562 -5.296875 1.398438 -5.613281 C 1.695312 -5.921875 2.066406 -6.167969 2.515625 -6.359375 C 2.964844 -6.550781 3.46875 -6.648438 4.023438 -6.648438 C 4.632812 -6.648438 5.128906 -6.574219 5.519531 -6.425781 C 5.910156 -6.277344 6.234375 -6.074219 6.492188 -5.8125 C 6.738281 -5.566406 6.917969 -5.273438 7.03125 -4.9375 C 7.144531 -4.601562 7.199219 -4.25 7.199219 -3.878906 L 7.199219 -3.457031 L 2.800781 -3.457031 C 2.800781 -2.566406 2.972656 -1.890625 3.3125 -1.425781 C 3.65625 -0.960938 4.203125 -0.730469 4.949219 -0.730469 C 5.355469 -0.730469 5.722656 -0.839844 6.046875 -1.0625 C 6.375 -1.289062 6.652344 -1.570312 6.882812 -1.914062 L 7.375 -1.554688 M 4.890625 -4.03125 C 4.890625 -4.289062 4.875 -4.558594 4.851562 -4.832031 C 4.824219 -5.105469 4.777344 -5.328125 4.714844 -5.5 C 4.640625 -5.707031 4.539062 -5.859375 4.410156 -5.964844 C 4.28125 -6.066406 4.121094 -6.121094 3.925781 -6.121094 C 3.589844 -6.121094 3.324219 -5.949219 3.125 -5.613281 C 2.925781 -5.273438 2.816406 -4.738281 2.800781 -4.003906 Z "/>
</g>
<g id="glyph-0-2">
<path d="M 6.863281 -5.265625 C 6.863281 -4.9375 6.761719 -4.648438 6.554688 -4.398438 C 6.351562 -4.148438 6.082031 -4.023438 5.75 -4.023438 C 5.433594 -4.023438 5.164062 -4.101562 4.945312 -4.261719 C 4.726562 -4.421875 4.617188 -4.660156 4.617188 -4.96875 C 4.617188 -5.121094 4.625 -5.238281 4.648438 -5.324219 C 4.671875 -5.40625 4.691406 -5.488281 4.707031 -5.558594 C 4.507812 -5.550781 4.296875 -5.484375 4.074219 -5.351562 C 3.855469 -5.222656 3.660156 -5.050781 3.488281 -4.835938 L 3.488281 -1.261719 C 3.488281 -1.109375 3.511719 -0.984375 3.5625 -0.886719 C 3.609375 -0.785156 3.6875 -0.707031 3.800781 -0.652344 C 3.898438 -0.601562 4.054688 -0.5625 4.265625 -0.53125 C 4.484375 -0.496094 4.636719 -0.480469 4.734375 -0.476562 L 4.734375 0 L 0.378906 0 L 0.378906 -0.476562 C 0.484375 -0.484375 0.59375 -0.496094 0.707031 -0.511719 C 0.816406 -0.527344 0.910156 -0.546875 0.988281 -0.574219 C 1.128906 -0.621094 1.222656 -0.695312 1.277344 -0.792969 C 1.328125 -0.894531 1.355469 -1.023438 1.355469 -1.183594 L 1.355469 -4.972656 C 1.355469 -5.128906 1.316406 -5.269531 1.242188 -5.394531 C 1.167969 -5.515625 1.082031 -5.617188 0.976562 -5.691406 C 0.898438 -5.742188 0.800781 -5.785156 0.679688 -5.820312 C 0.5625 -5.855469 0.429688 -5.878906 0.285156 -5.890625 L 0.285156 -6.367188 L 3.390625 -6.535156 L 3.488281 -6.4375 L 3.488281 -5.496094 L 3.515625 -5.496094 C 3.816406 -5.84375 4.132812 -6.113281 4.46875 -6.3125 C 4.804688 -6.507812 5.15625 -6.609375 5.519531 -6.609375 C 5.925781 -6.609375 6.25 -6.484375 6.492188 -6.234375 C 6.738281 -5.984375 6.863281 -5.660156 6.863281 -5.265625 Z "/>
</g>
<g id="glyph-0-3">
<path d="M 7.023438 -5.691406 C 7.347656 -5.390625 7.589844 -5.03125 7.761719 -4.617188 C 7.929688 -4.199219 8.015625 -3.746094 8.015625 -3.261719 C 8.015625 -2.78125 7.929688 -2.324219 7.761719 -1.898438 C 7.597656 -1.46875 7.351562 -1.105469 7.03125 -0.800781 C 6.6875 -0.476562 6.277344 -0.226562 5.804688 -0.0507812 C 5.328125 0.121094 4.785156 0.207031 4.171875 0.207031 C 3.644531 0.207031 3.15625 0.132812 2.710938 -0.0195312 C 2.265625 -0.171875 1.871094 -0.398438 1.53125 -0.703125 C 1.199219 -0.992188 0.941406 -1.351562 0.75 -1.78125 C 0.558594 -2.207031 0.460938 -2.6875 0.460938 -3.214844 C 0.460938 -3.738281 0.546875 -4.199219 0.710938 -4.605469 C 0.878906 -5.011719 1.128906 -5.375 1.464844 -5.691406 C 1.785156 -5.992188 2.183594 -6.230469 2.652344 -6.394531 C 3.125 -6.5625 3.648438 -6.648438 4.230469 -6.648438 C 4.839844 -6.648438 5.375 -6.5625 5.835938 -6.394531 C 6.296875 -6.230469 6.695312 -5.992188 7.023438 -5.691406 M 5.359375 -1.179688 C 5.453125 -1.421875 5.523438 -1.714844 5.570312 -2.0625 C 5.613281 -2.410156 5.636719 -2.816406 5.636719 -3.273438 C 5.636719 -3.578125 5.617188 -3.925781 5.574219 -4.316406 C 5.53125 -4.707031 5.464844 -5.015625 5.378906 -5.242188 C 5.273438 -5.515625 5.128906 -5.730469 4.945312 -5.886719 C 4.761719 -6.042969 4.527344 -6.121094 4.246094 -6.121094 C 3.9375 -6.121094 3.691406 -6.035156 3.503906 -5.867188 C 3.320312 -5.695312 3.179688 -5.476562 3.078125 -5.207031 C 2.988281 -4.960938 2.925781 -4.671875 2.890625 -4.339844 C 2.855469 -4.007812 2.839844 -3.660156 2.839844 -3.300781 C 2.839844 -2.828125 2.855469 -2.4375 2.882812 -2.125 C 2.914062 -1.816406 2.988281 -1.503906 3.105469 -1.191406 C 3.207031 -0.921875 3.347656 -0.710938 3.535156 -0.554688 C 3.722656 -0.398438 3.957031 -0.320312 4.246094 -0.320312 C 4.503906 -0.320312 4.730469 -0.390625 4.914062 -0.539062 C 5.101562 -0.683594 5.25 -0.894531 5.359375 -1.179688 Z "/>
</g>
<g id="glyph-0-4">
</g>
<g id="glyph-0-5">
<path d="M 11.0625 -8.730469 C 10.941406 -8.71875 10.765625 -8.695312 10.539062 -8.660156 C 10.316406 -8.625 10.109375 -8.539062 9.929688 -8.40625 C 9.769531 -8.289062 9.652344 -8.085938 9.585938 -7.800781 C 9.519531 -7.519531 9.484375 -7.101562 9.484375 -6.550781 L 9.484375 0.0507812 L 8.328125 0.0507812 L 2.570312 -7.089844 L 2.570312 -2.753906 C 2.570312 -2.214844 2.605469 -1.804688 2.679688 -1.527344 C 2.75 -1.246094 2.867188 -1.042969 3.027344 -0.910156 C 3.144531 -0.816406 3.332031 -0.730469 3.585938 -0.65625 C 3.84375 -0.582031 4.046875 -0.535156 4.199219 -0.507812 L 4.199219 0 L 0.226562 0 L 0.226562 -0.507812 C 0.398438 -0.519531 0.589844 -0.550781 0.808594 -0.601562 C 1.03125 -0.652344 1.214844 -0.730469 1.359375 -0.832031 C 1.53125 -0.960938 1.644531 -1.148438 1.707031 -1.402344 C 1.773438 -1.65625 1.804688 -2.082031 1.804688 -2.683594 L 1.804688 -7.058594 C 1.804688 -7.273438 1.769531 -7.480469 1.703125 -7.671875 C 1.636719 -7.867188 1.53125 -8.03125 1.386719 -8.171875 C 1.234375 -8.316406 1.058594 -8.433594 0.863281 -8.519531 C 0.664062 -8.601562 0.441406 -8.667969 0.1875 -8.71875 L 0.1875 -9.238281 L 3.667969 -9.238281 L 8.71875 -2.992188 L 8.71875 -6.484375 C 8.71875 -7.039062 8.679688 -7.453125 8.605469 -7.726562 C 8.53125 -7.996094 8.414062 -8.195312 8.253906 -8.328125 C 8.128906 -8.425781 7.941406 -8.511719 7.695312 -8.585938 C 7.449219 -8.65625 7.25 -8.703125 7.097656 -8.730469 L 7.097656 -9.238281 L 11.0625 -9.238281 Z "/>
</g>
<g id="glyph-0-6">
<path d="M 8.984375 -8.210938 C 9.441406 -7.792969 9.800781 -7.289062 10.066406 -6.699219 C 10.335938 -6.109375 10.46875 -5.4375 10.46875 -4.679688 C 10.46875 -4.007812 10.355469 -3.367188 10.128906 -2.761719 C 9.90625 -2.152344 9.578125 -1.628906 9.152344 -1.191406 C 8.707031 -0.734375 8.179688 -0.378906 7.578125 -0.125 C 6.976562 0.125 6.257812 0.253906 5.421875 0.253906 C 4.75 0.253906 4.113281 0.144531 3.515625 -0.078125 C 2.917969 -0.300781 2.390625 -0.621094 1.933594 -1.042969 C 1.480469 -1.453125 1.125 -1.957031 0.859375 -2.546875 C 0.59375 -3.136719 0.460938 -3.792969 0.460938 -4.519531 C 0.460938 -5.273438 0.589844 -5.957031 0.847656 -6.570312 C 1.109375 -7.1875 1.460938 -7.710938 1.914062 -8.152344 C 2.359375 -8.582031 2.890625 -8.910156 3.503906 -9.144531 C 4.121094 -9.375 4.773438 -9.492188 5.46875 -9.492188 C 6.160156 -9.492188 6.804688 -9.378906 7.410156 -9.152344 C 8.015625 -8.929688 8.542969 -8.613281 8.984375 -8.210938 M 7.3125 -1.597656 C 7.507812 -1.992188 7.648438 -2.441406 7.734375 -2.941406 C 7.820312 -3.441406 7.863281 -4.003906 7.863281 -4.636719 C 7.863281 -5.171875 7.828125 -5.691406 7.75 -6.195312 C 7.675781 -6.703125 7.546875 -7.15625 7.363281 -7.550781 C 7.175781 -7.945312 6.929688 -8.261719 6.621094 -8.503906 C 6.3125 -8.742188 5.929688 -8.859375 5.46875 -8.859375 C 4.683594 -8.859375 4.085938 -8.488281 3.679688 -7.742188 C 3.269531 -6.996094 3.066406 -5.945312 3.066406 -4.582031 C 3.066406 -4.003906 3.109375 -3.460938 3.199219 -2.945312 C 3.289062 -2.433594 3.429688 -1.984375 3.621094 -1.601562 C 3.816406 -1.214844 4.0625 -0.914062 4.363281 -0.699219 C 4.660156 -0.484375 5.03125 -0.378906 5.46875 -0.378906 C 5.898438 -0.378906 6.265625 -0.484375 6.574219 -0.703125 C 6.882812 -0.921875 7.128906 -1.21875 7.3125 -1.597656 Z "/>
</g>
<g id="glyph-0-7">
<path d="M 7.667969 -5.730469 L 6.238281 -5.730469 C 6.40625 -5.539062 6.53125 -5.339844 6.617188 -5.125 C 6.703125 -4.914062 6.746094 -4.695312 6.746094 -4.464844 C 6.746094 -4.167969 6.664062 -3.886719 6.503906 -3.621094 C 6.34375 -3.359375 6.132812 -3.148438 5.871094 -2.980469 C 5.609375 -2.8125 5.296875 -2.679688 4.941406 -2.585938 C 4.585938 -2.488281 4.199219 -2.441406 3.78125 -2.441406 L 2.722656 -2.441406 C 2.667969 -2.402344 2.613281 -2.339844 2.546875 -2.253906 C 2.484375 -2.167969 2.453125 -2.085938 2.453125 -2.007812 C 2.453125 -1.816406 2.53125 -1.683594 2.683594 -1.609375 C 2.835938 -1.535156 3.109375 -1.492188 3.507812 -1.484375 C 3.902344 -1.476562 4.304688 -1.460938 4.707031 -1.433594 C 5.109375 -1.410156 5.398438 -1.398438 5.574219 -1.394531 C 5.824219 -1.378906 6.074219 -1.328125 6.320312 -1.242188 C 6.570312 -1.152344 6.785156 -1.035156 6.964844 -0.890625 C 7.164062 -0.738281 7.332031 -0.546875 7.460938 -0.308594 C 7.589844 -0.0742188 7.65625 0.199219 7.65625 0.507812 C 7.65625 0.835938 7.578125 1.148438 7.417969 1.4375 C 7.261719 1.730469 7.019531 1.980469 6.691406 2.195312 C 6.351562 2.414062 5.9375 2.585938 5.457031 2.707031 C 4.980469 2.828125 4.386719 2.890625 3.679688 2.890625 C 2.535156 2.890625 1.667969 2.75 1.074219 2.472656 C 0.480469 2.195312 0.183594 1.78125 0.183594 1.222656 C 0.183594 0.882812 0.34375 0.597656 0.664062 0.378906 C 0.984375 0.15625 1.484375 0.0351562 2.160156 0.0117188 L 2.160156 -0.0664062 C 1.761719 -0.199219 1.449219 -0.378906 1.226562 -0.605469 C 1.003906 -0.828125 0.890625 -1.085938 0.890625 -1.382812 C 0.890625 -1.566406 0.9375 -1.722656 1.023438 -1.847656 C 1.113281 -1.972656 1.226562 -2.085938 1.367188 -2.179688 C 1.488281 -2.261719 1.636719 -2.332031 1.808594 -2.390625 C 1.984375 -2.449219 2.128906 -2.496094 2.246094 -2.53125 L 2.246094 -2.605469 C 1.660156 -2.820312 1.230469 -3.085938 0.953125 -3.398438 C 0.679688 -3.710938 0.539062 -4.09375 0.539062 -4.542969 C 0.539062 -5.183594 0.835938 -5.691406 1.421875 -6.074219 C 2.011719 -6.457031 2.757812 -6.648438 3.660156 -6.648438 C 3.953125 -6.648438 4.238281 -6.621094 4.515625 -6.570312 C 4.789062 -6.523438 5 -6.476562 5.144531 -6.4375 L 7.667969 -6.4375 L 7.667969 -5.730469 M 4.617188 -4.492188 C 4.617188 -5 4.535156 -5.402344 4.375 -5.695312 C 4.214844 -5.992188 3.964844 -6.140625 3.628906 -6.140625 C 3.460938 -6.140625 3.3125 -6.097656 3.183594 -6.019531 C 3.058594 -5.9375 2.957031 -5.824219 2.878906 -5.671875 C 2.804688 -5.523438 2.753906 -5.351562 2.726562 -5.152344 C 2.703125 -4.957031 2.6875 -4.753906 2.6875 -4.542969 C 2.6875 -4.070312 2.773438 -3.683594 2.9375 -3.378906 C 3.101562 -3.074219 3.335938 -2.921875 3.640625 -2.921875 C 3.957031 -2.921875 4.195312 -3.058594 4.363281 -3.332031 C 4.53125 -3.605469 4.617188 -3.992188 4.617188 -4.492188 M 5.703125 0.984375 C 5.703125 0.835938 5.660156 0.6875 5.578125 0.542969 C 5.496094 0.398438 5.3125 0.28125 5.027344 0.1875 C 4.871094 0.164062 4.613281 0.144531 4.257812 0.136719 C 3.898438 0.128906 3.410156 0.125 2.785156 0.125 C 2.632812 0.253906 2.507812 0.40625 2.40625 0.585938 C 2.304688 0.765625 2.253906 0.980469 2.253906 1.230469 C 2.253906 1.339844 2.28125 1.457031 2.34375 1.589844 C 2.402344 1.71875 2.5 1.839844 2.628906 1.953125 C 2.78125 2.078125 2.949219 2.179688 3.136719 2.25 C 3.324219 2.320312 3.605469 2.355469 3.980469 2.355469 C 4.539062 2.355469 4.964844 2.25 5.261719 2.03125 C 5.554688 1.8125 5.703125 1.464844 5.703125 0.984375 Z "/>
</g>
<g id="glyph-0-8">
<path d="M 7.023438 -5.691406 C 7.347656 -5.390625 7.589844 -5.03125 7.761719 -4.617188 C 7.929688 -4.199219 8.015625 -3.746094 8.015625 -3.261719 C 8.015625 -2.78125 7.929688 -2.324219 7.761719 -1.898438 C 7.597656 -1.46875 7.351562 -1.105469 7.03125 -0.800781 C 6.6875 -0.476562 6.277344 -0.226562 5.804688 -0.0507812 C 5.328125 0.121094 4.785156 0.207031 4.171875 0.207031 C 3.644531 0.207031 3.15625 0.132812 2.710938 -0.0195312 C 2.265625 -0.171875 1.871094 -0.398438 1.53125 -0.703125 C 1.199219 -0.992188 0.941406 -1.351562 0.75 -1.78125 C 0.558594 -2.207031 0.460938 -2.6875 0.460938 -3.214844 C 0.460938 -3.738281 0.546875 -4.199219 0.710938 -4.605469 C 0.878906 -5.011719 1.128906 -5.375 1.464844 -5.691406 C 1.785156 -5.992188 2.183594 -6.230469 2.652344 -6.394531 C 3.125 -6.5625 3.648438 -6.648438 4.230469 -6.648438 C 4.839844 -6.648438 5.375 -6.5625 5.835938 -6.394531 C 6.296875 -6.230469 6.695312 -5.992188 7.023438 -5.691406 M 5.359375 -1.179688 C 5.453125 -1.421875 5.523438 -1.714844 5.570312 -2.0625 C 5.613281 -2.410156 5.636719 -2.816406 5.636719 -3.273438 C 5.636719 -3.578125 5.617188 -3.925781 5.574219 -4.316406 C 5.53125 -4.707031 5.464844 -5.015625 5.378906 -5.242188 C 5.273438 -5.515625 5.128906 -5.730469 4.945312 -5.886719 C 4.761719 -6.042969 4.527344 -6.121094 4.246094 -6.121094 C 3.9375 -6.121094 3.691406 -6.035156 3.503906 -5.867188 C 3.320312 -5.695312 3.179688 -5.476562 3.078125 -5.207031 C 2.988281 -4.960938 2.925781 -4.671875 2.890625 -4.339844 C 2.855469 -4.007812 2.839844 -3.660156 2.839844 -3.300781 C 2.839844 -2.828125 2.855469 -2.4375 2.882812 -2.125 C 2.914062 -1.816406 2.988281 -1.503906 3.105469 -1.191406 C 3.207031 -0.921875 3.347656 -0.710938 3.535156 -0.554688 C 3.722656 -0.398438 3.957031 -0.320312 4.246094 -0.320312 C 4.503906 -0.320312 4.730469 -0.390625 4.914062 -0.539062 C 5.101562 -0.683594 5.25 -0.894531 5.359375 -1.179688 M 6.132812 -9.503906 C 6.132812 -9.308594 6.089844 -9.152344 6 -9.03125 C 5.910156 -8.914062 5.769531 -8.792969 5.574219 -8.664062 C 5.359375 -8.527344 5.023438 -8.328125 4.5625 -8.078125 C 4.105469 -7.820312 3.582031 -7.519531 3 -7.167969 L 2.726562 -7.414062 C 3.109375 -7.921875 3.40625 -8.328125 3.613281 -8.628906 C 3.820312 -8.929688 4 -9.1875 4.152344 -9.402344 C 4.339844 -9.664062 4.519531 -9.84375 4.6875 -9.9375 C 4.855469 -10.03125 5.066406 -10.078125 5.320312 -10.078125 C 5.527344 -10.078125 5.714844 -10.023438 5.882812 -9.910156 C 6.050781 -9.796875 6.132812 -9.660156 6.132812 -9.503906 Z "/>
</g>
<g id="glyph-0-9">
<path d="M 8.789062 -0.136719 L 5.578125 0.0507812 L 5.480469 -0.0390625 L 5.480469 -0.636719 L 5.4375 -0.652344 C 5.222656 -0.421875 4.9375 -0.21875 4.574219 -0.046875 C 4.210938 0.121094 3.847656 0.207031 3.480469 0.207031 C 2.605469 0.207031 1.882812 -0.117188 1.3125 -0.769531 C 0.746094 -1.417969 0.460938 -2.261719 0.460938 -3.292969 C 0.460938 -4.210938 0.78125 -4.996094 1.414062 -5.652344 C 2.050781 -6.304688 2.816406 -6.632812 3.71875 -6.632812 C 4.074219 -6.632812 4.410156 -6.59375 4.722656 -6.511719 C 5.03125 -6.433594 5.28125 -6.339844 5.46875 -6.230469 L 5.46875 -8.359375 C 5.46875 -8.519531 5.4375 -8.671875 5.371094 -8.8125 C 5.304688 -8.953125 5.21875 -9.0625 5.109375 -9.140625 C 4.976562 -9.234375 4.808594 -9.304688 4.605469 -9.34375 C 4.40625 -9.386719 4.203125 -9.417969 3.996094 -9.433594 L 3.996094 -9.910156 L 7.519531 -10.078125 L 7.617188 -9.972656 L 7.617188 -1.4375 C 7.617188 -1.273438 7.644531 -1.136719 7.699219 -1.023438 C 7.753906 -0.910156 7.839844 -0.820312 7.960938 -0.753906 C 8.050781 -0.707031 8.183594 -0.671875 8.359375 -0.652344 C 8.535156 -0.628906 8.675781 -0.617188 8.789062 -0.613281 L 8.789062 -0.136719 M 5.46875 -1.296875 L 5.46875 -4.972656 C 5.4375 -5.074219 5.394531 -5.183594 5.34375 -5.304688 C 5.289062 -5.425781 5.214844 -5.542969 5.117188 -5.652344 C 5.03125 -5.742188 4.914062 -5.824219 4.769531 -5.890625 C 4.625 -5.960938 4.460938 -5.996094 4.28125 -5.996094 C 3.847656 -5.996094 3.492188 -5.75 3.214844 -5.261719 C 2.9375 -4.769531 2.800781 -4.078125 2.800781 -3.183594 C 2.800781 -2.832031 2.824219 -2.515625 2.875 -2.234375 C 2.925781 -1.957031 3.011719 -1.703125 3.136719 -1.472656 C 3.261719 -1.242188 3.425781 -1.0625 3.621094 -0.929688 C 3.816406 -0.800781 4.054688 -0.734375 4.332031 -0.734375 C 4.597656 -0.734375 4.816406 -0.785156 4.988281 -0.886719 C 5.160156 -0.992188 5.320312 -1.125 5.46875 -1.296875 Z "/>
</g>
<g id="glyph-0-10">
<path d="M 4.492188 0 L 0.378906 0 L 0.378906 -0.476562 C 0.492188 -0.484375 0.601562 -0.496094 0.710938 -0.507812 C 0.816406 -0.519531 0.910156 -0.542969 0.988281 -0.574219 C 1.128906 -0.625 1.226562 -0.699219 1.28125 -0.796875 C 1.339844 -0.894531 1.367188 -1.023438 1.367188 -1.183594 L 1.367188 -4.972656 C 1.367188 -5.125 1.332031 -5.257812 1.261719 -5.375 C 1.195312 -5.488281 1.105469 -5.582031 1.003906 -5.652344 C 0.925781 -5.703125 0.804688 -5.753906 0.648438 -5.800781 C 0.488281 -5.847656 0.34375 -5.878906 0.214844 -5.890625 L 0.214844 -6.367188 L 3.40625 -6.535156 L 3.503906 -6.4375 L 3.503906 -1.269531 C 3.503906 -1.117188 3.535156 -0.988281 3.601562 -0.882812 C 3.664062 -0.777344 3.757812 -0.695312 3.878906 -0.644531 C 3.96875 -0.605469 4.0625 -0.570312 4.167969 -0.539062 C 4.269531 -0.511719 4.378906 -0.488281 4.492188 -0.476562 L 4.492188 0 M 3.542969 -8.878906 C 3.542969 -8.550781 3.414062 -8.269531 3.160156 -8.039062 C 2.90625 -7.804688 2.605469 -7.6875 2.257812 -7.6875 C 1.90625 -7.6875 1.605469 -7.804688 1.351562 -8.039062 C 1.097656 -8.269531 0.96875 -8.550781 0.96875 -8.878906 C 0.96875 -9.210938 1.097656 -9.492188 1.351562 -9.726562 C 1.605469 -9.960938 1.90625 -10.078125 2.257812 -10.078125 C 2.609375 -10.078125 2.914062 -9.960938 3.164062 -9.726562 C 3.414062 -9.492188 3.542969 -9.210938 3.542969 -8.878906 Z "/>
</g>
<g id="glyph-0-11">
<path d="M 4.09375 0.207031 C 3.492188 0.207031 2.957031 0.121094 2.496094 -0.0546875 C 2.035156 -0.230469 1.652344 -0.472656 1.355469 -0.773438 C 1.054688 -1.082031 0.832031 -1.449219 0.683594 -1.867188 C 0.535156 -2.289062 0.460938 -2.746094 0.460938 -3.242188 C 0.460938 -3.695312 0.550781 -4.125 0.730469 -4.53125 C 0.914062 -4.9375 1.15625 -5.296875 1.464844 -5.605469 C 1.78125 -5.921875 2.175781 -6.175781 2.644531 -6.363281 C 3.117188 -6.550781 3.636719 -6.648438 4.207031 -6.648438 C 5.003906 -6.648438 5.636719 -6.496094 6.101562 -6.195312 C 6.566406 -5.894531 6.796875 -5.484375 6.796875 -4.972656 C 6.796875 -4.660156 6.714844 -4.410156 6.550781 -4.21875 C 6.382812 -4.027344 6.101562 -3.933594 5.695312 -3.933594 C 5.371094 -3.933594 5.097656 -4.011719 4.878906 -4.167969 C 4.660156 -4.324219 4.550781 -4.527344 4.550781 -4.777344 C 4.550781 -4.992188 4.585938 -5.203125 4.65625 -5.410156 C 4.722656 -5.617188 4.765625 -5.777344 4.777344 -5.886719 C 4.730469 -5.964844 4.671875 -6.023438 4.597656 -6.0625 C 4.523438 -6.105469 4.40625 -6.125 4.25 -6.125 C 4.054688 -6.125 3.878906 -6.082031 3.71875 -5.988281 C 3.558594 -5.898438 3.40625 -5.738281 3.269531 -5.507812 C 3.132812 -5.289062 3.027344 -5 2.945312 -4.636719 C 2.867188 -4.269531 2.824219 -3.832031 2.824219 -3.320312 C 2.824219 -2.546875 3.007812 -1.925781 3.367188 -1.453125 C 3.730469 -0.980469 4.164062 -0.742188 4.667969 -0.742188 C 5.148438 -0.742188 5.53125 -0.847656 5.816406 -1.0625 C 6.101562 -1.277344 6.355469 -1.585938 6.574219 -1.980469 L 7.0625 -1.640625 C 6.929688 -1.375 6.769531 -1.132812 6.582031 -0.914062 C 6.394531 -0.695312 6.171875 -0.5 5.910156 -0.332031 C 5.636719 -0.152344 5.359375 -0.0195312 5.078125 0.0703125 C 4.796875 0.164062 4.46875 0.207031 4.09375 0.207031 Z "/>
</g>
</g>
</defs>
<g fill="rgb(100%, 41.960784%, 41.960784%)" fill-opacity="1">
<use xlink:href="#glyph-0-0" x="30" y="32.226562"/>
<use xlink:href="#glyph-0-1" x="39" y="32.226562"/>
<use xlink:href="#glyph-0-2" x="47" y="32.226562"/>
<use xlink:href="#glyph-0-3" x="54" y="32.226562"/>
<use xlink:href="#glyph-0-4" x="62" y="32.226562"/>
<use xlink:href="#glyph-0-5" x="65" y="32.226562"/>
<use xlink:href="#glyph-0-6" x="76" y="32.226562"/>
<use xlink:href="#glyph-0-4" x="87" y="32.226562"/>
<use xlink:href="#glyph-0-1" x="90" y="32.226562"/>
<use xlink:href="#glyph-0-2" x="98" y="32.226562"/>
<use xlink:href="#glyph-0-7" x="105" y="32.226562"/>
<use xlink:href="#glyph-0-8" x="113" y="32.226562"/>
<use xlink:href="#glyph-0-9" x="121" y="32.226562"/>
<use xlink:href="#glyph-0-10" x="130" y="32.226562"/>
<use xlink:href="#glyph-0-11" x="135" y="32.226562"/>
<use xlink:href="#glyph-0-3" x="142" y="32.226562"/>
</g>
</svg>
