<?xml version="1.0" encoding="UTF-8"?>
<svg xmlns="http://www.w3.org/2000/svg" xmlns:xlink="http://www.w3.org/1999/xlink" width="854" height="480" viewBox="0 0 854 480">
<defs>
<g>
<g id="glyph-0-0">
<path d="M 4.703125 0.222656 C 4.152344 0.222656 3.625 0.113281 3.121094 -0.105469 C 2.613281 -0.320312 2.167969 -0.632812 1.777344 -1.042969 C 1.390625 -1.449219 1.082031 -1.949219 0.851562 -2.539062 C 0.621094 -3.125 0.507812 -3.789062 0.507812 -4.527344 C 0.507812 -5.265625 0.621094 -5.9375 0.847656 -6.539062 C 1.070312 -7.140625 1.382812 -7.65625 1.78125 -8.089844 C 2.175781 -8.523438 2.644531 -8.855469 3.179688 -9.089844 C 3.71875 -9.324219 4.292969 -9.441406 4.90625 -9.441406 C 5.359375 -9.441406 5.773438 -9.382812 6.140625 -9.269531 C 6.507812 -9.15625 6.859375 -9 7.195312 -8.796875 L 7.460938 -9.238281 L 7.980469 -9.238281 L 8.039062 -5.945312 L 7.507812 -5.945312 C 7.4375 -6.265625 7.332031 -6.613281 7.195312 -6.988281 C 7.054688 -7.363281 6.894531 -7.683594 6.707031 -7.941406 C 6.5 -8.238281 6.25 -8.46875 5.964844 -8.636719 C 5.679688 -8.804688 5.351562 -8.886719 4.984375 -8.886719 C 4.5625 -8.886719 4.171875 -8.792969 3.808594 -8.605469 C 3.449219 -8.417969 3.132812 -8.144531 2.871094 -7.777344 C 2.617188 -7.425781 2.421875 -6.980469 2.277344 -6.4375 C 2.136719 -5.894531 2.0625 -5.289062 2.0625 -4.617188 C 2.0625 -4.027344 2.136719 -3.488281 2.289062 -2.992188 C 2.4375 -2.5 2.652344 -2.066406 2.929688 -1.695312 C 3.207031 -1.324219 3.535156 -1.035156 3.914062 -0.828125 C 4.292969 -0.617188 4.71875 -0.515625 5.183594 -0.515625 C 5.535156 -0.515625 5.859375 -0.570312 6.152344 -0.679688 C 6.449219 -0.789062 6.703125 -0.9375 6.921875 -1.121094 C 7.136719 -1.3125 7.328125 -1.527344 7.492188 -1.769531 C 7.660156 -2.015625 7.792969 -2.277344 7.898438 -2.566406 L 8.386719 -2.332031 C 8.011719 -1.414062 7.519531 -0.761719 6.902344 -0.367188 C 6.285156 0.0234375 5.554688 0.222656 4.703125 0.222656 Z "/>
</g>
<g id="glyph-0-1">
<path d="M 6.550781 -0.117188 C 6.34375 -0.0429688 6.167969 0.015625 6.011719 0.0625 C 5.859375 0.105469 5.683594 0.128906 5.488281 0.128906 C 5.148438 0.128906 4.878906 0.0507812 4.679688 -0.105469 C 4.476562 -0.265625 4.347656 -0.496094 4.289062 -0.800781 L 4.25 -0.800781 C 3.96875 -0.488281 3.667969 -0.25 3.34375 -0.0859375 C 3.019531 0.0820312 2.628906 0.164062 2.175781 0.164062 C 1.691406 0.164062 1.296875 0.015625 0.984375 -0.28125 C 0.675781 -0.574219 0.519531 -0.960938 0.519531 -1.4375 C 0.519531 -1.6875 0.554688 -1.90625 0.625 -2.101562 C 0.695312 -2.296875 0.796875 -2.472656 0.9375 -2.628906 C 1.046875 -2.761719 1.1875 -2.875 1.367188 -2.976562 C 1.546875 -3.082031 1.710938 -3.160156 1.867188 -3.222656 C 2.0625 -3.296875 2.460938 -3.433594 3.054688 -3.632812 C 3.652344 -3.832031 4.054688 -3.988281 4.265625 -4.101562 L 4.265625 -4.746094 C 4.265625 -4.800781 4.253906 -4.910156 4.226562 -5.070312 C 4.203125 -5.230469 4.152344 -5.382812 4.074219 -5.527344 C 3.988281 -5.6875 3.867188 -5.828125 3.707031 -5.945312 C 3.550781 -6.066406 3.324219 -6.125 3.035156 -6.125 C 2.835938 -6.125 2.648438 -6.09375 2.476562 -6.023438 C 2.304688 -5.957031 2.183594 -5.886719 2.117188 -5.8125 C 2.117188 -5.726562 2.136719 -5.597656 2.179688 -5.429688 C 2.21875 -5.261719 2.238281 -5.105469 2.238281 -4.960938 C 2.238281 -4.808594 2.171875 -4.671875 2.035156 -4.542969 C 1.898438 -4.417969 1.707031 -4.355469 1.464844 -4.355469 C 1.246094 -4.355469 1.089844 -4.433594 0.984375 -4.585938 C 0.882812 -4.742188 0.832031 -4.914062 0.832031 -5.105469 C 0.832031 -5.304688 0.902344 -5.496094 1.046875 -5.675781 C 1.1875 -5.859375 1.371094 -6.023438 1.59375 -6.164062 C 1.789062 -6.285156 2.027344 -6.390625 2.304688 -6.472656 C 2.582031 -6.558594 2.855469 -6.601562 3.117188 -6.601562 C 3.484375 -6.601562 3.800781 -6.578125 4.070312 -6.527344 C 4.34375 -6.476562 4.589844 -6.371094 4.8125 -6.203125 C 5.03125 -6.042969 5.199219 -5.824219 5.316406 -5.550781 C 5.429688 -5.273438 5.488281 -4.917969 5.488281 -4.484375 C 5.488281 -3.863281 5.480469 -3.316406 5.46875 -2.835938 C 5.457031 -2.355469 5.449219 -1.832031 5.449219 -1.261719 C 5.449219 -1.09375 5.476562 -0.960938 5.535156 -0.859375 C 5.59375 -0.757812 5.6875 -0.675781 5.808594 -0.605469 C 5.871094 -0.566406 5.976562 -0.542969 6.117188 -0.539062 C 6.257812 -0.535156 6.402344 -0.535156 6.550781 -0.535156 L 6.550781 -0.117188 M 4.277344 -3.554688 C 3.910156 -3.445312 3.585938 -3.339844 3.308594 -3.234375 C 3.03125 -3.128906 2.769531 -3 2.53125 -2.84375 C 2.316406 -2.695312 2.144531 -2.519531 2.019531 -2.316406 C 1.890625 -2.117188 1.828125 -1.875 1.828125 -1.597656 C 1.828125 -1.234375 1.921875 -0.972656 2.113281 -0.800781 C 2.300781 -0.632812 2.542969 -0.546875 2.832031 -0.546875 C 3.140625 -0.546875 3.410156 -0.621094 3.644531 -0.773438 C 3.878906 -0.921875 4.078125 -1.097656 4.238281 -1.304688 Z "/>
</g>
<g id="glyph-0-2">
<path d="M 4.707031 -3.144531 C 4.886719 -2.988281 5.023438 -2.808594 5.117188 -2.605469 C 5.210938 -2.398438 5.261719 -2.152344 5.261719 -1.855469 C 5.261719 -1.261719 5.039062 -0.773438 4.59375 -0.398438 C 4.148438 -0.0195312 3.570312 0.167969 2.863281 0.167969 C 2.492188 0.167969 2.148438 0.101562 1.832031 -0.03125 C 1.519531 -0.167969 1.292969 -0.289062 1.160156 -0.402344 L 1.027344 0.0195312 L 0.539062 0.0195312 L 0.476562 -2.214844 L 0.925781 -2.214844 C 0.960938 -2.042969 1.03125 -1.84375 1.144531 -1.617188 C 1.257812 -1.390625 1.394531 -1.1875 1.554688 -1.003906 C 1.726562 -0.8125 1.929688 -0.652344 2.164062 -0.523438 C 2.402344 -0.390625 2.667969 -0.324219 2.960938 -0.324219 C 3.378906 -0.324219 3.699219 -0.421875 3.925781 -0.609375 C 4.152344 -0.800781 4.265625 -1.070312 4.265625 -1.425781 C 4.265625 -1.609375 4.226562 -1.765625 4.15625 -1.898438 C 4.085938 -2.03125 3.980469 -2.144531 3.839844 -2.246094 C 3.699219 -2.347656 3.523438 -2.4375 3.3125 -2.515625 C 3.105469 -2.597656 2.875 -2.675781 2.617188 -2.753906 C 2.414062 -2.816406 2.1875 -2.898438 1.9375 -3.003906 C 1.6875 -3.109375 1.472656 -3.234375 1.296875 -3.378906 C 1.105469 -3.53125 0.949219 -3.71875 0.828125 -3.9375 C 0.707031 -4.160156 0.644531 -4.421875 0.644531 -4.71875 C 0.644531 -5.246094 0.839844 -5.691406 1.230469 -6.054688 C 1.621094 -6.417969 2.144531 -6.601562 2.800781 -6.601562 C 3.050781 -6.601562 3.308594 -6.570312 3.570312 -6.503906 C 3.832031 -6.4375 4.046875 -6.359375 4.210938 -6.269531 L 4.363281 -6.609375 L 4.832031 -6.609375 L 4.929688 -4.542969 L 4.480469 -4.542969 C 4.386719 -5.007812 4.191406 -5.382812 3.890625 -5.671875 C 3.589844 -5.960938 3.21875 -6.105469 2.785156 -6.105469 C 2.429688 -6.105469 2.152344 -6.015625 1.945312 -5.839844 C 1.742188 -5.660156 1.640625 -5.441406 1.640625 -5.1875 C 1.640625 -4.992188 1.675781 -4.832031 1.742188 -4.699219 C 1.808594 -4.570312 1.910156 -4.460938 2.042969 -4.367188 C 2.175781 -4.28125 2.339844 -4.199219 2.535156 -4.125 C 2.734375 -4.046875 2.976562 -3.960938 3.269531 -3.867188 C 3.554688 -3.777344 3.824219 -3.667969 4.078125 -3.546875 C 4.332031 -3.425781 4.542969 -3.292969 4.707031 -3.144531 Z "/>
</g>
<g id="glyph-0-3">
<path d="M 6.730469 -3.273438 C 6.730469 -2.824219 6.660156 -2.378906 6.515625 -1.941406 C 6.375 -1.507812 6.167969 -1.136719 5.902344 -0.832031 C 5.605469 -0.484375 5.257812 -0.226562 4.863281 -0.0585938 C 4.464844 0.109375 4.023438 0.195312 3.53125 0.195312 C 3.125 0.195312 2.734375 0.117188 2.367188 -0.0351562 C 1.996094 -0.191406 1.667969 -0.414062 1.382812 -0.710938 C 1.097656 -1 0.875 -1.355469 0.707031 -1.773438 C 0.539062 -2.191406 0.457031 -2.664062 0.457031 -3.183594 C 0.457031 -4.1875 0.746094 -5.007812 1.332031 -5.644531 C 1.917969 -6.28125 2.683594 -6.601562 3.628906 -6.601562 C 4.527344 -6.601562 5.269531 -6.296875 5.855469 -5.691406 C 6.441406 -5.085938 6.730469 -4.28125 6.730469 -3.273438 M 5.382812 -3.261719 C 5.382812 -3.585938 5.351562 -3.929688 5.285156 -4.292969 C 5.222656 -4.65625 5.125 -4.964844 4.992188 -5.214844 C 4.855469 -5.484375 4.671875 -5.699219 4.445312 -5.863281 C 4.21875 -6.023438 3.941406 -6.105469 3.617188 -6.105469 C 3.28125 -6.105469 2.996094 -6.023438 2.757812 -5.859375 C 2.523438 -5.695312 2.328125 -5.46875 2.183594 -5.183594 C 2.042969 -4.917969 1.945312 -4.617188 1.886719 -4.277344 C 1.832031 -3.9375 1.804688 -3.609375 1.804688 -3.292969 C 1.804688 -2.878906 1.835938 -2.492188 1.90625 -2.140625 C 1.972656 -1.785156 2.078125 -1.46875 2.226562 -1.191406 C 2.375 -0.914062 2.5625 -0.695312 2.785156 -0.539062 C 3.007812 -0.378906 3.285156 -0.300781 3.617188 -0.300781 C 4.160156 -0.300781 4.589844 -0.5625 4.90625 -1.085938 C 5.226562 -1.613281 5.382812 -2.335938 5.382812 -3.261719 Z "/>
</g>
<g id="glyph-0-4">
</g>
<g id="glyph-0-5">
<path d="M 5.265625 0 L 0.878906 0 L 0.878906 -0.460938 C 1.007812 -0.472656 1.210938 -0.488281 1.488281 -0.515625 C 1.761719 -0.546875 1.953125 -0.574219 2.058594 -0.605469 C 2.191406 -0.648438 2.296875 -0.71875 2.367188 -0.816406 C 2.4375 -0.914062 2.472656 -1.0625 2.472656 -1.257812 L 2.472656 -5.828125 L 0.851562 -5.828125 L 0.851562 -6.375 L 1.210938 -6.375 C 1.679688 -6.375 2.101562 -6.460938 2.46875 -6.632812 C 2.839844 -6.808594 3.109375 -6.996094 3.269531 -7.195312 L 3.808594 -7.195312 C 3.796875 -6.910156 3.78125 -6.582031 3.769531 -6.203125 C 3.757812 -5.828125 3.75 -5.488281 3.75 -5.1875 L 3.75 -1.328125 C 3.75 -1.175781 3.785156 -1.039062 3.851562 -0.921875 C 3.917969 -0.800781 4.015625 -0.714844 4.140625 -0.65625 C 4.253906 -0.609375 4.4375 -0.566406 4.695312 -0.527344 C 4.949219 -0.488281 5.140625 -0.464844 5.265625 -0.460938 Z "/>
</g>
<g id="glyph-0-6">
<path d="M 2.976562 -5.554688 C 2.976562 -5.316406 2.886719 -5.105469 2.710938 -4.933594 C 2.535156 -4.761719 2.328125 -4.675781 2.082031 -4.675781 C 1.839844 -4.675781 1.628906 -4.761719 1.453125 -4.933594 C 1.277344 -5.105469 1.191406 -5.316406 1.191406 -5.554688 C 1.191406 -5.796875 1.277344 -6.007812 1.453125 -6.183594 C 1.625 -6.359375 1.835938 -6.445312 2.082031 -6.445312 C 2.332031 -6.445312 2.542969 -6.359375 2.714844 -6.183594 C 2.886719 -6.007812 2.976562 -5.796875 2.976562 -5.554688 M 2.976562 -0.75 C 2.976562 -0.503906 2.886719 -0.296875 2.710938 -0.125 C 2.535156 0.0429688 2.328125 0.128906 2.082031 0.128906 C 1.839844 0.128906 1.628906 0.0429688 1.453125 -0.125 C 1.277344 -0.296875 1.191406 -0.503906 1.191406 -0.75 C 1.191406 -0.992188 1.277344 -1.203125 1.453125 -1.375 C 1.628906 -1.550781 1.839844 -1.640625 2.082031 -1.640625 C 2.328125 -1.640625 2.535156 -1.550781 2.710938 -1.375 C 2.886719 -1.203125 2.976562 -0.992188 2.976562 -0.75 Z "/>
</g>
</g>
</defs>
<g fill="rgb(60.392157%, 63.921569%, 72.156863%)" fill-opacity="1">
<use xlink:href="#glyph-0-0" x="30" y="32.226562"/>
<use xlink:href="#glyph-0-1" x="39" y="32.226562"/>
<use xlink:href="#glyph-0-2" x="46" y="32.226562"/>
<use xlink:href="#glyph-0-3" x="52" y="32.226562"/>
<use xlink:href="#glyph-0-4" x="59" y="32.226562"/>
<use xlink:href="#glyph-0-5" x="62" y="32.226562"/>
<use xlink:href="#glyph-0-6" x="68" y="32.226562"/>
</g>
</svg>
