<?xml version="1.0" encoding="UTF-8"?>
<svg xmlns="http://www.w3.org/2000/svg" xmlns:xlink="http://www.w3.org/1999/xlink" width="854" height="480" viewBox="0 0 854 480">
<defs>
<g>
<g id="glyph-0-0">
<path d="M 2.355469 0.195312 C 1.714844 0.195312 1.179688 0.0820312 0.75 -0.148438 C 0.324219 -0.375 0.109375 -0.671875 0.109375 -1.042969 C 0.109375 -1.214844 0.171875 -1.378906 0.300781 -1.53125 C 0.425781 -1.683594 0.578125 -1.757812 0.761719 -1.757812 C 0.933594 -1.757812 1.074219 -1.71875 1.179688 -1.636719 C 1.289062 -1.558594 1.371094 -1.460938 1.433594 -1.355469 C 1.496094 -1.242188 1.554688 -1.105469 1.605469 -0.949219 C 1.65625 -0.792969 1.695312 -0.667969 1.730469 -0.566406 C 1.796875 -0.492188 1.886719 -0.425781 2 -0.359375 C 2.117188 -0.296875 2.28125 -0.265625 2.5 -0.265625 C 2.96875 -0.265625 3.324219 -0.382812 3.5625 -0.621094 C 3.804688 -0.855469 3.925781 -1.171875 3.925781 -1.574219 C 3.925781 -1.867188 3.8125 -2.105469 3.585938 -2.28125 C 3.363281 -2.457031 3.023438 -2.617188 2.578125 -2.765625 C 2.417969 -2.816406 2.230469 -2.898438 2.011719 -3.003906 C 1.792969 -3.109375 1.621094 -3.226562 1.492188 -3.347656 C 1.335938 -3.484375 1.207031 -3.652344 1.113281 -3.84375 C 1.019531 -4.035156 0.96875 -4.261719 0.96875 -4.519531 C 0.96875 -5.078125 1.21875 -5.558594 1.714844 -5.964844 C 2.210938 -6.371094 2.824219 -6.574219 3.546875 -6.574219 C 3.71875 -6.574219 3.898438 -6.566406 4.09375 -6.550781 C 4.289062 -6.53125 4.503906 -6.484375 4.738281 -6.40625 C 4.945312 -6.335938 5.117188 -6.234375 5.261719 -6.097656 C 5.402344 -5.960938 5.476562 -5.785156 5.476562 -5.566406 C 5.476562 -5.386719 5.414062 -5.226562 5.296875 -5.082031 C 5.175781 -4.9375 5.019531 -4.863281 4.824219 -4.863281 C 4.664062 -4.863281 4.53125 -4.898438 4.425781 -4.96875 C 4.324219 -5.035156 4.234375 -5.128906 4.167969 -5.246094 C 4.097656 -5.363281 4.039062 -5.492188 3.996094 -5.625 C 3.953125 -5.757812 3.90625 -5.890625 3.855469 -6.023438 C 3.773438 -6.058594 3.699219 -6.082031 3.632812 -6.09375 C 3.566406 -6.105469 3.480469 -6.113281 3.371094 -6.113281 C 2.945312 -6.113281 2.625 -6 2.40625 -5.769531 C 2.1875 -5.542969 2.078125 -5.269531 2.078125 -4.957031 C 2.078125 -4.652344 2.175781 -4.425781 2.375 -4.269531 C 2.570312 -4.117188 2.898438 -3.957031 3.351562 -3.789062 C 3.941406 -3.578125 4.371094 -3.332031 4.640625 -3.058594 C 4.90625 -2.785156 5.039062 -2.445312 5.039062 -2.042969 C 5.039062 -1.382812 4.785156 -0.84375 4.277344 -0.425781 C 3.769531 -0.0117188 3.128906 0.195312 2.355469 0.195312 Z "/>
</g>
<g id="glyph-0-1">
<path d="M 3.585938 -0.710938 L 3.488281 -0.292969 C 3.089844 -0.132812 2.769531 -0.0195312 2.53125 0.0429688 C 2.292969 0.105469 2.089844 0.136719 1.921875 0.136719 C 1.574219 0.136719 1.3125 0.046875 1.140625 -0.132812 C 0.964844 -0.3125 0.878906 -0.535156 0.878906 -0.800781 C 0.878906 -0.902344 0.886719 -1.007812 0.90625 -1.113281 C 0.921875 -1.222656 0.949219 -1.359375 0.988281 -1.523438 L 1.675781 -4.296875 C 1.710938 -4.449219 1.746094 -4.609375 1.777344 -4.785156 C 1.8125 -4.957031 1.828125 -5.105469 1.828125 -5.226562 C 1.828125 -5.46875 1.785156 -5.632812 1.707031 -5.710938 C 1.625 -5.792969 1.464844 -5.832031 1.214844 -5.832031 C 1.121094 -5.832031 0.992188 -5.816406 0.835938 -5.789062 C 0.679688 -5.757812 0.558594 -5.730469 0.476562 -5.710938 L 0.574219 -6.125 C 0.910156 -6.277344 1.214844 -6.390625 1.484375 -6.464844 C 1.753906 -6.539062 1.964844 -6.574219 2.121094 -6.574219 C 2.476562 -6.574219 2.734375 -6.492188 2.894531 -6.320312 C 3.054688 -6.152344 3.136719 -5.921875 3.136719 -5.636719 C 3.136719 -5.558594 3.128906 -5.453125 3.109375 -5.316406 C 3.09375 -5.183594 3.066406 -5.046875 3.03125 -4.914062 L 2.339844 -2.144531 C 2.296875 -1.972656 2.261719 -1.808594 2.226562 -1.644531 C 2.195312 -1.480469 2.179688 -1.347656 2.179688 -1.246094 C 2.179688 -0.996094 2.234375 -0.828125 2.34375 -0.734375 C 2.453125 -0.644531 2.632812 -0.597656 2.878906 -0.597656 C 2.960938 -0.597656 3.078125 -0.609375 3.234375 -0.632812 C 3.386719 -0.652344 3.503906 -0.679688 3.585938 -0.710938 M 4.050781 -9.035156 C 4.050781 -8.789062 3.96875 -8.574219 3.808594 -8.390625 C 3.648438 -8.203125 3.449219 -8.113281 3.210938 -8.113281 C 2.988281 -8.113281 2.796875 -8.199219 2.636719 -8.375 C 2.476562 -8.550781 2.394531 -8.753906 2.394531 -8.976562 C 2.394531 -9.214844 2.476562 -9.425781 2.636719 -9.601562 C 2.796875 -9.78125 2.988281 -9.871094 3.210938 -9.871094 C 3.457031 -9.871094 3.660156 -9.785156 3.816406 -9.617188 C 3.972656 -9.453125 4.050781 -9.257812 4.050781 -9.035156 Z "/>
</g>
</g>
</defs>
<g fill="rgb(60.392157%, 63.921569%, 72.156863%)" fill-opacity="1">
<use xlink:href="#glyph-0-0" x="30" y="32.226562"/>
<use xlink:href="#glyph-0-1" x="36" y="32.226562"/>
</g>
</svg>
