<?xml version="1.0" encoding="utf-8" standalone="no"?>
<!DOCTYPE svg PUBLIC "-//W3C//DTD SVG 1.1//EN"
  "http://www.w3.org/Graphics/SVG/1.1/DTD/svg11.dtd">
<svg xmlns:xlink="http://www.w3.org/1999/xlink" width="421.799375pt" height="312.841813pt" viewBox="0 0 421.799375 312.841813" xmlns="http://www.w3.org/2000/svg" version="1.1">
 <metadata>
  <rdf:RDF xmlns:dc="http://purl.org/dc/elements/1.1/" xmlns:cc="http://creativecommons.org/ns#" xmlns:rdf="http://www.w3.org/1999/02/22-rdf-syntax-ns#">
   <cc:Work>
    <dc:type rdf:resource="http://purl.org/dc/dcmitype/StillImage"/>
    <dc:date>2026-09-14T17:09:00.040197</dc:date>
    <dc:format>image/svg+xml</dc:format>
    <dc:creator>
     <cc:Agent>
      <dc:title>Matplotlib v3.10.9, https://matplotlib.org/</dc:title>
     </cc:Agent>
    </dc:creator>
   </cc:Work>
  </rdf:RDF>
 </metadata>
 <defs>
  <style type="text/css">*{stroke-linejoin: round; stroke-linecap: butt}</style>
 </defs>
 <g id="figure_1">
  <g id="patch_1">
   <path d="M 0 312.841813 
L 421.799375 312.841813 
L 421.799375 0 
L 0 0 
L 0 312.841813 
z
" style="fill: none"/>
  </g>
  <g id="axes_1">
   <g id="patch_2">
    <path d="M 46.339375 273.349938 
L 414.599375 273.349938 
L 414.599375 23.229938 
L 46.339375 23.229938 
L 46.339375 273.349938 
z
" style="fill: none"/>
   </g>
   <g id="matplotlib.axis_1">
    <g id="xtick_1">
     <g id="line2d_1">
      <defs>
       <path id="m3d11a917fc" d="M 0 0 
L 0 3.5 
" style="stroke: #78829a; stroke-width: 0.8"/>
      </defs>
      <g>
       <use xlink:href="#m3d11a917fc" x="63.078466" y="273.349938" style="fill: #78829a; stroke: #78829a; stroke-width: 0.8"/>
      </g>
     </g>
     <g id="text_1">
      <!-- 0.0 -->
      <g style="fill: #78829a" transform="translate(54.331747 288.708219) scale(0.11 -0.11)">
       <defs>
        <path id="DejaVuSans-30" d="M 2034 4250 
Q 1547 4250 1301 3770 
Q 1056 3291 1056 2328 
Q 1056 1369 1301 889 
Q 1547 409 2034 409 
Q 2525 409 2770 889 
Q 3016 1369 3016 2328 
Q 3016 3291 2770 3770 
Q 2525 4250 2034 4250 
z
M 2034 4750 
Q 2819 4750 3233 4129 
Q 3647 3509 3647 2328 
Q 3647 1150 3233 529 
Q 2819 -91 2034 -91 
Q 1250 -91 836 529 
Q 422 1150 422 2328 
Q 422 3509 836 4129 
Q 1250 4750 2034 4750 
z
" transform="scale(0.015625)"/>
        <path id="DejaVuSans-2e" d="M 684 794 
L 1344 794 
L 1344 0 
L 684 0 
L 684 794 
z
" transform="scale(0.015625)"/>
       </defs>
       <use xlink:href="#DejaVuSans-30"/>
       <use xlink:href="#DejaVuSans-2e" transform="translate(63.623047 0)"/>
       <use xlink:href="#DejaVuSans-30" transform="translate(95.410156 0)"/>
      </g>
     </g>
    </g>
    <g id="xtick_2">
     <g id="line2d_2">
      <g>
       <use xlink:href="#m3d11a917fc" x="130.03483" y="273.349938" style="fill: #78829a; stroke: #78829a; stroke-width: 0.8"/>
      </g>
     </g>
     <g id="text_2">
      <!-- 0.2 -->
      <g style="fill: #78829a" transform="translate(121.288111 288.708219) scale(0.11 -0.11)">
       <defs>
        <path id="DejaVuSans-32" d="M 1228 531 
L 3431 531 
L 3431 0 
L 469 0 
L 469 531 
Q 828 903 1448 1529 
Q 2069 2156 2228 2338 
Q 2531 2678 2651 2914 
Q 2772 3150 2772 3378 
Q 2772 3750 2511 3984 
Q 2250 4219 1831 4219 
Q 1534 4219 1204 4116 
Q 875 4013 500 3803 
L 500 4441 
Q 881 4594 1212 4672 
Q 1544 4750 1819 4750 
Q 2544 4750 2975 4387 
Q 3406 4025 3406 3419 
Q 3406 3131 3298 2873 
Q 3191 2616 2906 2266 
Q 2828 2175 2409 1742 
Q 1991 1309 1228 531 
z
" transform="scale(0.015625)"/>
       </defs>
       <use xlink:href="#DejaVuSans-30"/>
       <use xlink:href="#DejaVuSans-2e" transform="translate(63.623047 0)"/>
       <use xlink:href="#DejaVuSans-32" transform="translate(95.410156 0)"/>
      </g>
     </g>
    </g>
    <g id="xtick_3">
     <g id="line2d_3">
      <g>
       <use xlink:href="#m3d11a917fc" x="196.991193" y="273.349938" style="fill: #78829a; stroke: #78829a; stroke-width: 0.8"/>
      </g>
     </g>
     <g id="text_3">
      <!-- 0.4 -->
      <g style="fill: #78829a" transform="translate(188.244474 288.708219) scale(0.11 -0.11)">
       <defs>
        <path id="DejaVuSans-34" d="M 2419 4116 
L 825 1625 
L 2419 1625 
L 2419 4116 
z
M 2253 4666 
L 3047 4666 
L 3047 1625 
L 3713 1625 
L 3713 1100 
L 3047 1100 
L 3047 0 
L 2419 0 
L 2419 1100 
L 313 1100 
L 313 1709 
L 2253 4666 
z
" transform="scale(0.015625)"/>
       </defs>
       <use xlink:href="#DejaVuSans-30"/>
       <use xlink:href="#DejaVuSans-2e" transform="translate(63.623047 0)"/>
       <use xlink:href="#DejaVuSans-34" transform="translate(95.410156 0)"/>
      </g>
     </g>
    </g>
    <g id="xtick_4">
     <g id="line2d_4">
      <g>
       <use xlink:href="#m3d11a917fc" x="263.947557" y="273.349938" style="fill: #78829a; stroke: #78829a; stroke-width: 0.8"/>
      </g>
     </g>
     <g id="text_4">
      <!-- 0.6 -->
      <g style="fill: #78829a" transform="translate(255.200838 288.708219) scale(0.11 -0.11)">
       <defs>
        <path id="DejaVuSans-36" d="M 2113 2584 
Q 1688 2584 1439 2293 
Q 1191 2003 1191 1497 
Q 1191 994 1439 701 
Q 1688 409 2113 409 
Q 2538 409 2786 701 
Q 3034 994 3034 1497 
Q 3034 2003 2786 2293 
Q 2538 2584 2113 2584 
z
M 3366 4563 
L 3366 3988 
Q 3128 4100 2886 4159 
Q 2644 4219 2406 4219 
Q 1781 4219 1451 3797 
Q 1122 3375 1075 2522 
Q 1259 2794 1537 2939 
Q 1816 3084 2150 3084 
Q 2853 3084 3261 2657 
Q 3669 2231 3669 1497 
Q 3669 778 3244 343 
Q 2819 -91 2113 -91 
Q 1303 -91 875 529 
Q 447 1150 447 2328 
Q 447 3434 972 4092 
Q 1497 4750 2381 4750 
Q 2619 4750 2861 4703 
Q 3103 4656 3366 4563 
z
" transform="scale(0.015625)"/>
       </defs>
       <use xlink:href="#DejaVuSans-30"/>
       <use xlink:href="#DejaVuSans-2e" transform="translate(63.623047 0)"/>
       <use xlink:href="#DejaVuSans-36" transform="translate(95.410156 0)"/>
      </g>
     </g>
    </g>
    <g id="xtick_5">
     <g id="line2d_5">
      <g>
       <use xlink:href="#m3d11a917fc" x="330.90392" y="273.349938" style="fill: #78829a; stroke: #78829a; stroke-width: 0.8"/>
      </g>
     </g>
     <g id="text_5">
      <!-- 0.8 -->
      <g style="fill: #78829a" transform="translate(322.157202 288.708219) scale(0.11 -0.11)">
       <defs>
        <path id="DejaVuSans-38" d="M 2034 2216 
Q 1584 2216 1326 1975 
Q 1069 1734 1069 1313 
Q 1069 891 1326 650 
Q 1584 409 2034 409 
Q 2484 409 2743 651 
Q 3003 894 3003 1313 
Q 3003 1734 2745 1975 
Q 2488 2216 2034 2216 
z
M 1403 2484 
Q 997 2584 770 2862 
Q 544 3141 544 3541 
Q 544 4100 942 4425 
Q 1341 4750 2034 4750 
Q 2731 4750 3128 4425 
Q 3525 4100 3525 3541 
Q 3525 3141 3298 2862 
Q 3072 2584 2669 2484 
Q 3125 2378 3379 2068 
Q 3634 1759 3634 1313 
Q 3634 634 3220 271 
Q 2806 -91 2034 -91 
Q 1263 -91 848 271 
Q 434 634 434 1313 
Q 434 1759 690 2068 
Q 947 2378 1403 2484 
z
M 1172 3481 
Q 1172 3119 1398 2916 
Q 1625 2713 2034 2713 
Q 2441 2713 2670 2916 
Q 2900 3119 2900 3481 
Q 2900 3844 2670 4047 
Q 2441 4250 2034 4250 
Q 1625 4250 1398 4047 
Q 1172 3844 1172 3481 
z
" transform="scale(0.015625)"/>
       </defs>
       <use xlink:href="#DejaVuSans-30"/>
       <use xlink:href="#DejaVuSans-2e" transform="translate(63.623047 0)"/>
       <use xlink:href="#DejaVuSans-38" transform="translate(95.410156 0)"/>
      </g>
     </g>
    </g>
    <g id="xtick_6">
     <g id="line2d_6">
      <g>
       <use xlink:href="#m3d11a917fc" x="397.860284" y="273.349938" style="fill: #78829a; stroke: #78829a; stroke-width: 0.8"/>
      </g>
     </g>
     <g id="text_6">
      <!-- 1.0 -->
      <g style="fill: #78829a" transform="translate(389.113565 288.708219) scale(0.11 -0.11)">
       <defs>
        <path id="DejaVuSans-31" d="M 794 531 
L 1825 531 
L 1825 4091 
L 703 3866 
L 703 4441 
L 1819 4666 
L 2450 4666 
L 2450 531 
L 3481 531 
L 3481 0 
L 794 0 
L 794 531 
z
" transform="scale(0.015625)"/>
       </defs>
       <use xlink:href="#DejaVuSans-31"/>
       <use xlink:href="#DejaVuSans-2e" transform="translate(63.623047 0)"/>
       <use xlink:href="#DejaVuSans-30" transform="translate(95.410156 0)"/>
      </g>
     </g>
    </g>
    <g id="text_7">
     <!-- $x$ -->
     <g style="fill: #78829a" transform="translate(227.169375 303.354156) scale(0.11 -0.11)">
      <defs>
       <path id="DejaVuSans-Oblique-78" d="M 3841 3500 
L 2234 1784 
L 3219 0 
L 2559 0 
L 1819 1388 
L 531 0 
L -166 0 
L 1556 1844 
L 641 3500 
L 1300 3500 
L 1972 2234 
L 3144 3500 
L 3841 3500 
z
" transform="scale(0.015625)"/>
      </defs>
      <use xlink:href="#DejaVuSans-Oblique-78" transform="translate(0 0.3125)"/>
     </g>
    </g>
   </g>
   <g id="matplotlib.axis_2">
    <g id="ytick_1">
     <g id="line2d_7">
      <defs>
       <path id="m1957b22366" d="M 0 0 
L -3.5 0 
" style="stroke: #78829a; stroke-width: 0.8"/>
      </defs>
      <g>
       <use xlink:href="#m1957b22366" x="46.339375" y="261.980847" style="fill: #78829a; stroke: #78829a; stroke-width: 0.8"/>
      </g>
     </g>
     <g id="text_8">
      <!-- 0.0 -->
      <g style="fill: #78829a" transform="translate(21.845938 266.159987) scale(0.11 -0.11)">
       <use xlink:href="#DejaVuSans-30"/>
       <use xlink:href="#DejaVuSans-2e" transform="translate(63.623047 0)"/>
       <use xlink:href="#DejaVuSans-30" transform="translate(95.410156 0)"/>
      </g>
     </g>
    </g>
    <g id="ytick_2">
     <g id="line2d_8">
      <g>
       <use xlink:href="#m1957b22366" x="46.339375" y="216.504483" style="fill: #78829a; stroke: #78829a; stroke-width: 0.8"/>
      </g>
     </g>
     <g id="text_9">
      <!-- 0.2 -->
      <g style="fill: #78829a" transform="translate(21.845938 220.683624) scale(0.11 -0.11)">
       <use xlink:href="#DejaVuSans-30"/>
       <use xlink:href="#DejaVuSans-2e" transform="translate(63.623047 0)"/>
       <use xlink:href="#DejaVuSans-32" transform="translate(95.410156 0)"/>
      </g>
     </g>
    </g>
    <g id="ytick_3">
     <g id="line2d_9">
      <g>
       <use xlink:href="#m1957b22366" x="46.339375" y="171.028119" style="fill: #78829a; stroke: #78829a; stroke-width: 0.8"/>
      </g>
     </g>
     <g id="text_10">
      <!-- 0.4 -->
      <g style="fill: #78829a" transform="translate(21.845938 175.20726) scale(0.11 -0.11)">
       <use xlink:href="#DejaVuSans-30"/>
       <use xlink:href="#DejaVuSans-2e" transform="translate(63.623047 0)"/>
       <use xlink:href="#DejaVuSans-34" transform="translate(95.410156 0)"/>
      </g>
     </g>
    </g>
    <g id="ytick_4">
     <g id="line2d_10">
      <g>
       <use xlink:href="#m1957b22366" x="46.339375" y="125.551756" style="fill: #78829a; stroke: #78829a; stroke-width: 0.8"/>
      </g>
     </g>
     <g id="text_11">
      <!-- 0.6 -->
      <g style="fill: #78829a" transform="translate(21.845938 129.730896) scale(0.11 -0.11)">
       <use xlink:href="#DejaVuSans-30"/>
       <use xlink:href="#DejaVuSans-2e" transform="translate(63.623047 0)"/>
       <use xlink:href="#DejaVuSans-36" transform="translate(95.410156 0)"/>
      </g>
     </g>
    </g>
    <g id="ytick_5">
     <g id="line2d_11">
      <g>
       <use xlink:href="#m1957b22366" x="46.339375" y="80.075392" style="fill: #78829a; stroke: #78829a; stroke-width: 0.8"/>
      </g>
     </g>
     <g id="text_12">
      <!-- 0.8 -->
      <g style="fill: #78829a" transform="translate(21.845938 84.254533) scale(0.11 -0.11)">
       <use xlink:href="#DejaVuSans-30"/>
       <use xlink:href="#DejaVuSans-2e" transform="translate(63.623047 0)"/>
       <use xlink:href="#DejaVuSans-38" transform="translate(95.410156 0)"/>
      </g>
     </g>
    </g>
    <g id="ytick_6">
     <g id="line2d_12">
      <g>
       <use xlink:href="#m1957b22366" x="46.339375" y="34.599028" style="fill: #78829a; stroke: #78829a; stroke-width: 0.8"/>
      </g>
     </g>
     <g id="text_13">
      <!-- 1.0 -->
      <g style="fill: #78829a" transform="translate(21.845938 38.778169) scale(0.11 -0.11)">
       <use xlink:href="#DejaVuSans-31"/>
       <use xlink:href="#DejaVuSans-2e" transform="translate(63.623047 0)"/>
       <use xlink:href="#DejaVuSans-30" transform="translate(95.410156 0)"/>
      </g>
     </g>
    </g>
    <g id="text_14">
     <!-- $y$ -->
     <g style="fill: #78829a" transform="translate(15.535938 151.589938) rotate(-90) scale(0.11 -0.11)">
      <defs>
       <path id="DejaVuSans-Oblique-79" d="M 1588 -325 
Q 1188 -997 936 -1164 
Q 684 -1331 294 -1331 
L -159 -1331 
L -63 -850 
L 269 -850 
Q 509 -850 678 -719 
Q 847 -588 1056 -206 
L 1234 128 
L 459 3500 
L 1069 3500 
L 1650 819 
L 3256 3500 
L 3859 3500 
L 1588 -325 
z
" transform="scale(0.015625)"/>
      </defs>
      <use xlink:href="#DejaVuSans-Oblique-79" transform="translate(0 0.3125)"/>
     </g>
    </g>
   </g>
   <g id="line2d_13">
    <path d="M 63.078466 261.980847 
L 63.642072 261.40665 
L 64.205677 260.832454 
L 64.769283 260.258257 
L 65.332889 259.684061 
L 65.896495 259.109864 
L 66.4601 258.535668 
L 67.023706 257.961471 
L 67.587312 257.387275 
L 68.150918 256.813078 
L 68.714523 256.238881 
L 69.278129 255.664685 
L 69.841735 255.090488 
L 70.405341 254.516292 
L 70.968946 253.942095 
L 71.532552 253.367899 
L 72.096158 252.793702 
L 72.659764 252.219506 
L 73.223369 251.645309 
L 73.786975 251.071113 
L 74.350581 250.496916 
L 74.914187 249.92272 
L 75.477793 249.348523 
L 76.041398 248.774327 
L 76.605004 248.20013 
L 77.16861 247.625934 
L 77.732216 247.051737 
L 78.295821 246.477541 
L 78.859427 245.903344 
L 79.423033 245.329148 
L 79.986639 244.754951 
L 80.550244 244.180755 
L 81.11385 243.606558 
L 81.677456 243.032362 
L 82.241062 242.458165 
L 82.804667 241.883969 
L 83.368273 241.309772 
L 83.931879 240.735576 
L 84.495485 240.161379 
L 85.05909 239.587183 
L 85.622696 239.012986 
L 86.186302 238.43879 
L 86.749908 237.864593 
L 87.313513 237.290397 
L 87.877119 236.7162 
L 88.440725 236.142004 
L 89.004331 235.567807 
L 89.567936 234.993611 
L 90.131542 234.419414 
L 90.695148 233.845218 
L 91.258754 233.271021 
L 91.822359 232.696825 
L 92.385965 232.122628 
L 92.949571 231.548432 
L 93.513177 230.974235 
L 94.076782 230.400039 
L 94.640388 229.825842 
L 95.203994 229.251645 
L 95.7676 228.677449 
L 96.331205 228.103252 
L 96.894811 227.529056 
L 97.458417 226.954859 
L 98.022023 226.380663 
L 98.585628 225.806466 
L 99.149234 225.23227 
L 99.71284 224.658073 
L 100.276446 224.083877 
L 100.840051 223.50968 
L 101.403657 222.935484 
L 101.967263 222.361287 
L 102.530869 221.787091 
L 103.094474 221.212894 
L 103.65808 220.638698 
L 104.221686 220.064501 
L 104.785292 219.490305 
L 105.348897 218.916108 
L 105.912503 218.341912 
L 106.476109 217.767715 
L 107.039715 217.193519 
L 107.603321 216.619322 
L 108.166926 216.045126 
L 108.730532 215.470929 
L 109.294138 214.896733 
L 109.857744 214.322536 
L 110.421349 213.74834 
L 110.984955 213.174143 
L 111.548561 212.599947 
L 112.112167 212.02575 
L 112.675772 211.451554 
L 113.239378 210.877357 
L 113.802984 210.303161 
L 114.36659 209.728964 
L 114.930195 209.154768 
L 115.493801 208.580571 
L 116.057407 208.006375 
L 116.621013 207.432178 
L 117.184618 206.857982 
L 117.748224 206.283785 
L 118.31183 205.709589 
L 118.875436 205.135392 
" clip-path="url(#pa513db7da5)" style="fill: none; stroke: #f0883e; stroke-width: 2.2; stroke-linecap: square"/>
   </g>
   <g id="line2d_14">
    <path d="M 118.875436 205.135392 
L 121.129859 203.986999 
L 123.384282 202.838606 
L 125.638705 201.690213 
L 127.893128 200.54182 
L 130.147551 199.393427 
L 132.401974 198.245034 
L 134.656397 197.096641 
L 136.91082 195.948248 
L 139.165243 194.799855 
L 141.419666 193.651462 
L 143.674089 192.503069 
L 145.928512 191.354676 
L 148.182935 190.206283 
L 150.437358 189.05789 
L 152.691781 187.909497 
L 154.946204 186.761104 
L 157.200627 185.612711 
L 159.45505 184.464318 
L 161.709473 183.315925 
L 163.963896 182.167532 
L 166.218319 181.019139 
L 168.472742 179.870746 
L 170.727165 178.722353 
L 172.981588 177.57396 
L 175.236011 176.425567 
L 177.490434 175.277173 
L 179.744857 174.12878 
L 181.99928 172.980387 
L 184.253703 171.831994 
L 186.508126 170.683601 
L 188.762549 169.535208 
L 191.016972 168.386815 
L 193.271395 167.238422 
L 195.525818 166.090029 
L 197.780241 164.941636 
L 200.034664 163.793243 
L 202.289087 162.64485 
L 204.54351 161.496457 
L 206.797933 160.348064 
L 209.052356 159.199671 
L 211.306779 158.051278 
L 213.561202 156.902885 
L 215.815625 155.754492 
L 218.070048 154.606099 
L 220.324471 153.457706 
L 222.578894 152.309313 
L 224.833317 151.16092 
L 227.08774 150.012527 
L 229.342163 148.864134 
L 231.596587 147.715741 
L 233.85101 146.567348 
L 236.105433 145.418955 
L 238.359856 144.270562 
L 240.614279 143.122169 
L 242.868702 141.973776 
L 245.123125 140.825383 
L 247.377548 139.67699 
L 249.631971 138.528597 
L 251.886394 137.380204 
L 254.140817 136.231811 
L 256.39524 135.083418 
L 258.649663 133.935025 
L 260.904086 132.786632 
L 263.158509 131.638239 
L 265.412932 130.489846 
L 267.667355 129.341453 
L 269.921778 128.19306 
L 272.176201 127.044667 
L 274.430624 125.896274 
L 276.685047 124.747881 
L 278.93947 123.599488 
L 281.193893 122.451095 
L 283.448316 121.302702 
L 285.702739 120.154308 
L 287.957162 119.005915 
L 290.211585 117.857522 
L 292.466008 116.709129 
L 294.720431 115.560736 
L 296.974854 114.412343 
L 299.229277 113.26395 
L 301.4837 112.115557 
L 303.738123 110.967164 
L 305.992546 109.818771 
L 308.246969 108.670378 
L 310.501392 107.521985 
L 312.755815 106.373592 
L 315.010238 105.225199 
L 317.264661 104.076806 
L 319.519084 102.928413 
L 321.773507 101.78002 
L 324.02793 100.631627 
L 326.282353 99.483234 
L 328.536776 98.334841 
L 330.791199 97.186448 
L 333.045622 96.038055 
L 335.300045 94.889662 
L 337.554468 93.741269 
L 339.808891 92.592876 
L 342.063314 91.444483 
" clip-path="url(#pa513db7da5)" style="fill: none; stroke: #f0883e; stroke-width: 2.2; stroke-linecap: square"/>
   </g>
   <g id="line2d_15">
    <path d="M 342.063314 91.444483 
L 342.62692 90.870286 
L 343.190526 90.29609 
L 343.754132 89.721893 
L 344.317737 89.147697 
L 344.881343 88.5735 
L 345.444949 87.999304 
L 346.008555 87.425107 
L 346.57216 86.850911 
L 347.135766 86.276714 
L 347.699372 85.702518 
L 348.262978 85.128321 
L 348.826583 84.554125 
L 349.390189 83.979928 
L 349.953795 83.405732 
L 350.517401 82.831535 
L 351.081006 82.257339 
L 351.644612 81.683142 
L 352.208218 81.108946 
L 352.771824 80.534749 
L 353.335429 79.960553 
L 353.899035 79.386356 
L 354.462641 78.81216 
L 355.026247 78.237963 
L 355.589853 77.663767 
L 356.153458 77.08957 
L 356.717064 76.515374 
L 357.28067 75.941177 
L 357.844276 75.366981 
L 358.407881 74.792784 
L 358.971487 74.218588 
L 359.535093 73.644391 
L 360.098699 73.070195 
L 360.662304 72.495998 
L 361.22591 71.921802 
L 361.789516 71.347605 
L 362.353122 70.773409 
L 362.916727 70.199212 
L 363.480333 69.625016 
L 364.043939 69.050819 
L 364.607545 68.476623 
L 365.17115 67.902426 
L 365.734756 67.32823 
L 366.298362 66.754033 
L 366.861968 66.179836 
L 367.425573 65.60564 
L 367.989179 65.031443 
L 368.552785 64.457247 
L 369.116391 63.88305 
L 369.679996 63.308854 
L 370.243602 62.734657 
L 370.807208 62.160461 
L 371.370814 61.586264 
L 371.934419 61.012068 
L 372.498025 60.437871 
L 373.061631 59.863675 
L 373.625237 59.289478 
L 374.188842 58.715282 
L 374.752448 58.141085 
L 375.316054 57.566889 
L 375.87966 56.992692 
L 376.443265 56.418496 
L 377.006871 55.844299 
L 377.570477 55.270103 
L 378.134083 54.695906 
L 378.697688 54.12171 
L 379.261294 53.547513 
L 379.8249 52.973317 
L 380.388506 52.39912 
L 380.952111 51.824924 
L 381.515717 51.250727 
L 382.079323 50.676531 
L 382.642929 50.102334 
L 383.206534 49.528138 
L 383.77014 48.953941 
L 384.333746 48.379745 
L 384.897352 47.805548 
L 385.460957 47.231352 
L 386.024563 46.657155 
L 386.588169 46.082959 
L 387.151775 45.508762 
L 387.715381 44.934566 
L 388.278986 44.360369 
L 388.842592 43.786173 
L 389.406198 43.211976 
L 389.969804 42.63778 
L 390.533409 42.063583 
L 391.097015 41.489387 
L 391.660621 40.91519 
L 392.224227 40.340994 
L 392.787832 39.766797 
L 393.351438 39.1926 
L 393.915044 38.618404 
L 394.47865 38.044207 
L 395.042255 37.470011 
L 395.605861 36.895814 
L 396.169467 36.321618 
L 396.733073 35.747421 
L 397.296678 35.173225 
L 397.860284 34.599028 
" clip-path="url(#pa513db7da5)" style="fill: none; stroke: #f0883e; stroke-width: 2.2; stroke-linecap: square"/>
   </g>
   <g id="line2d_16">
    <defs>
     <path id="md4eafd00eb" d="M 0 2 
C 0.530406 2 1.03916 1.789267 1.414214 1.414214 
C 1.789267 1.03916 2 0.530406 2 0 
C 2 -0.530406 1.789267 -1.03916 1.414214 -1.414214 
C 1.03916 -1.789267 0.530406 -2 0 -2 
C -0.530406 -2 -1.03916 -1.789267 -1.414214 -1.414214 
C -1.789267 -1.03916 -2 -0.530406 -2 0 
C -2 0.530406 -1.789267 1.03916 -1.414214 1.414214 
C -1.03916 1.789267 -0.530406 2 0 2 
z
" style="stroke: #f0883e"/>
    </defs>
    <g clip-path="url(#pa513db7da5)">
     <use xlink:href="#md4eafd00eb" x="118.875436" y="205.135392" style="fill: #f0883e; stroke: #f0883e"/>
     <use xlink:href="#md4eafd00eb" x="118.875436" y="205.135392" style="fill: #f0883e; stroke: #f0883e"/>
    </g>
   </g>
   <g id="line2d_17">
    <g clip-path="url(#pa513db7da5)">
     <use xlink:href="#md4eafd00eb" x="342.063314" y="91.444483" style="fill: #f0883e; stroke: #f0883e"/>
     <use xlink:href="#md4eafd00eb" x="342.063314" y="91.444483" style="fill: #f0883e; stroke: #f0883e"/>
    </g>
   </g>
   <g id="line2d_18">
    <path d="M 46.339375 261.980847 
L 414.599375 261.980847 
" clip-path="url(#pa513db7da5)" style="fill: none; stroke: #78829a; stroke-width: 0.6; stroke-linecap: square"/>
   </g>
   <g id="line2d_19">
    <path d="M 63.078466 273.349938 
L 63.078466 23.229938 
" clip-path="url(#pa513db7da5)" style="fill: none; stroke: #78829a; stroke-width: 0.6; stroke-linecap: square"/>
   </g>
   <g id="line2d_20">
    <path d="M 46.339375 205.135392 
L 414.599375 205.135392 
" clip-path="url(#pa513db7da5)" style="fill: none; stroke-dasharray: 0.5,0.825; stroke-dashoffset: 0; stroke: #78829a; stroke-width: 0.5"/>
   </g>
   <g id="line2d_21">
    <path d="M 46.339375 91.444483 
L 414.599375 91.444483 
" clip-path="url(#pa513db7da5)" style="fill: none; stroke-dasharray: 0.5,0.825; stroke-dashoffset: 0; stroke: #78829a; stroke-width: 0.5"/>
   </g>
   <g id="patch_3">
    <path d="M 46.339375 273.349938 
L 46.339375 23.229938 
" style="fill: none; stroke: #78829a; stroke-width: 0.8; stroke-linejoin: miter; stroke-linecap: square"/>
   </g>
   <g id="patch_4">
    <path d="M 414.599375 273.349938 
L 414.599375 23.229938 
" style="fill: none; stroke: #78829a; stroke-width: 0.8; stroke-linejoin: miter; stroke-linecap: square"/>
   </g>
   <g id="patch_5">
    <path d="M 46.339375 273.349938 
L 414.599375 273.349938 
" style="fill: none; stroke: #78829a; stroke-width: 0.8; stroke-linejoin: miter; stroke-linecap: square"/>
   </g>
   <g id="patch_6">
    <path d="M 46.339375 23.229938 
L 414.599375 23.229938 
" style="fill: none; stroke: #78829a; stroke-width: 0.8; stroke-linejoin: miter; stroke-linecap: square"/>
   </g>
   <g id="text_15">
    <!-- Estimador MMSE de $X$ dado $Y$ (no lineal) -->
    <g style="fill: #78829a" transform="translate(98.139375 17.229938) scale(0.132 -0.132)">
     <defs>
      <path id="DejaVuSans-45" d="M 628 4666 
L 3578 4666 
L 3578 4134 
L 1259 4134 
L 1259 2753 
L 3481 2753 
L 3481 2222 
L 1259 2222 
L 1259 531 
L 3634 531 
L 3634 0 
L 628 0 
L 628 4666 
z
" transform="scale(0.015625)"/>
      <path id="DejaVuSans-73" d="M 2834 3397 
L 2834 2853 
Q 2591 2978 2328 3040 
Q 2066 3103 1784 3103 
Q 1356 3103 1142 2972 
Q 928 2841 928 2578 
Q 928 2378 1081 2264 
Q 1234 2150 1697 2047 
L 1894 2003 
Q 2506 1872 2764 1633 
Q 3022 1394 3022 966 
Q 3022 478 2636 193 
Q 2250 -91 1575 -91 
Q 1294 -91 989 -36 
Q 684 19 347 128 
L 347 722 
Q 666 556 975 473 
Q 1284 391 1588 391 
Q 1994 391 2212 530 
Q 2431 669 2431 922 
Q 2431 1156 2273 1281 
Q 2116 1406 1581 1522 
L 1381 1569 
Q 847 1681 609 1914 
Q 372 2147 372 2553 
Q 372 3047 722 3315 
Q 1072 3584 1716 3584 
Q 2034 3584 2315 3537 
Q 2597 3491 2834 3397 
z
" transform="scale(0.015625)"/>
      <path id="DejaVuSans-74" d="M 1172 4494 
L 1172 3500 
L 2356 3500 
L 2356 3053 
L 1172 3053 
L 1172 1153 
Q 1172 725 1289 603 
Q 1406 481 1766 481 
L 2356 481 
L 2356 0 
L 1766 0 
Q 1100 0 847 248 
Q 594 497 594 1153 
L 594 3053 
L 172 3053 
L 172 3500 
L 594 3500 
L 594 4494 
L 1172 4494 
z
" transform="scale(0.015625)"/>
      <path id="DejaVuSans-69" d="M 603 3500 
L 1178 3500 
L 1178 0 
L 603 0 
L 603 3500 
z
M 603 4863 
L 1178 4863 
L 1178 4134 
L 603 4134 
L 603 4863 
z
" transform="scale(0.015625)"/>
      <path id="DejaVuSans-6d" d="M 3328 2828 
Q 3544 3216 3844 3400 
Q 4144 3584 4550 3584 
Q 5097 3584 5394 3201 
Q 5691 2819 5691 2113 
L 5691 0 
L 5113 0 
L 5113 2094 
Q 5113 2597 4934 2840 
Q 4756 3084 4391 3084 
Q 3944 3084 3684 2787 
Q 3425 2491 3425 1978 
L 3425 0 
L 2847 0 
L 2847 2094 
Q 2847 2600 2669 2842 
Q 2491 3084 2119 3084 
Q 1678 3084 1418 2786 
Q 1159 2488 1159 1978 
L 1159 0 
L 581 0 
L 581 3500 
L 1159 3500 
L 1159 2956 
Q 1356 3278 1631 3431 
Q 1906 3584 2284 3584 
Q 2666 3584 2933 3390 
Q 3200 3197 3328 2828 
z
" transform="scale(0.015625)"/>
      <path id="DejaVuSans-61" d="M 2194 1759 
Q 1497 1759 1228 1600 
Q 959 1441 959 1056 
Q 959 750 1161 570 
Q 1363 391 1709 391 
Q 2188 391 2477 730 
Q 2766 1069 2766 1631 
L 2766 1759 
L 2194 1759 
z
M 3341 1997 
L 3341 0 
L 2766 0 
L 2766 531 
Q 2569 213 2275 61 
Q 1981 -91 1556 -91 
Q 1019 -91 701 211 
Q 384 513 384 1019 
Q 384 1609 779 1909 
Q 1175 2209 1959 2209 
L 2766 2209 
L 2766 2266 
Q 2766 2663 2505 2880 
Q 2244 3097 1772 3097 
Q 1472 3097 1187 3025 
Q 903 2953 641 2809 
L 641 3341 
Q 956 3463 1253 3523 
Q 1550 3584 1831 3584 
Q 2591 3584 2966 3190 
Q 3341 2797 3341 1997 
z
" transform="scale(0.015625)"/>
      <path id="DejaVuSans-64" d="M 2906 2969 
L 2906 4863 
L 3481 4863 
L 3481 0 
L 2906 0 
L 2906 525 
Q 2725 213 2448 61 
Q 2172 -91 1784 -91 
Q 1150 -91 751 415 
Q 353 922 353 1747 
Q 353 2572 751 3078 
Q 1150 3584 1784 3584 
Q 2172 3584 2448 3432 
Q 2725 3281 2906 2969 
z
M 947 1747 
Q 947 1113 1208 752 
Q 1469 391 1925 391 
Q 2381 391 2643 752 
Q 2906 1113 2906 1747 
Q 2906 2381 2643 2742 
Q 2381 3103 1925 3103 
Q 1469 3103 1208 2742 
Q 947 2381 947 1747 
z
" transform="scale(0.015625)"/>
      <path id="DejaVuSans-6f" d="M 1959 3097 
Q 1497 3097 1228 2736 
Q 959 2375 959 1747 
Q 959 1119 1226 758 
Q 1494 397 1959 397 
Q 2419 397 2687 759 
Q 2956 1122 2956 1747 
Q 2956 2369 2687 2733 
Q 2419 3097 1959 3097 
z
M 1959 3584 
Q 2709 3584 3137 3096 
Q 3566 2609 3566 1747 
Q 3566 888 3137 398 
Q 2709 -91 1959 -91 
Q 1206 -91 779 398 
Q 353 888 353 1747 
Q 353 2609 779 3096 
Q 1206 3584 1959 3584 
z
" transform="scale(0.015625)"/>
      <path id="DejaVuSans-72" d="M 2631 2963 
Q 2534 3019 2420 3045 
Q 2306 3072 2169 3072 
Q 1681 3072 1420 2755 
Q 1159 2438 1159 1844 
L 1159 0 
L 581 0 
L 581 3500 
L 1159 3500 
L 1159 2956 
Q 1341 3275 1631 3429 
Q 1922 3584 2338 3584 
Q 2397 3584 2469 3576 
Q 2541 3569 2628 3553 
L 2631 2963 
z
" transform="scale(0.015625)"/>
      <path id="DejaVuSans-20" transform="scale(0.015625)"/>
      <path id="DejaVuSans-4d" d="M 628 4666 
L 1569 4666 
L 2759 1491 
L 3956 4666 
L 4897 4666 
L 4897 0 
L 4281 0 
L 4281 4097 
L 3078 897 
L 2444 897 
L 1241 4097 
L 1241 0 
L 628 0 
L 628 4666 
z
" transform="scale(0.015625)"/>
      <path id="DejaVuSans-53" d="M 3425 4513 
L 3425 3897 
Q 3066 4069 2747 4153 
Q 2428 4238 2131 4238 
Q 1616 4238 1336 4038 
Q 1056 3838 1056 3469 
Q 1056 3159 1242 3001 
Q 1428 2844 1947 2747 
L 2328 2669 
Q 3034 2534 3370 2195 
Q 3706 1856 3706 1288 
Q 3706 609 3251 259 
Q 2797 -91 1919 -91 
Q 1588 -91 1214 -16 
Q 841 59 441 206 
L 441 856 
Q 825 641 1194 531 
Q 1563 422 1919 422 
Q 2459 422 2753 634 
Q 3047 847 3047 1241 
Q 3047 1584 2836 1778 
Q 2625 1972 2144 2069 
L 1759 2144 
Q 1053 2284 737 2584 
Q 422 2884 422 3419 
Q 422 4038 858 4394 
Q 1294 4750 2059 4750 
Q 2388 4750 2728 4690 
Q 3069 4631 3425 4513 
z
" transform="scale(0.015625)"/>
      <path id="DejaVuSans-65" d="M 3597 1894 
L 3597 1613 
L 953 1613 
Q 991 1019 1311 708 
Q 1631 397 2203 397 
Q 2534 397 2845 478 
Q 3156 559 3463 722 
L 3463 178 
Q 3153 47 2828 -22 
Q 2503 -91 2169 -91 
Q 1331 -91 842 396 
Q 353 884 353 1716 
Q 353 2575 817 3079 
Q 1281 3584 2069 3584 
Q 2775 3584 3186 3129 
Q 3597 2675 3597 1894 
z
M 3022 2063 
Q 3016 2534 2758 2815 
Q 2500 3097 2075 3097 
Q 1594 3097 1305 2825 
Q 1016 2553 972 2059 
L 3022 2063 
z
" transform="scale(0.015625)"/>
      <path id="DejaVuSans-Oblique-58" d="M 878 4666 
L 1516 4666 
L 2316 2981 
L 3763 4666 
L 4500 4666 
L 2578 2438 
L 3738 0 
L 3103 0 
L 2163 1966 
L 459 0 
L -275 0 
L 1906 2509 
L 878 4666 
z
" transform="scale(0.015625)"/>
      <path id="DejaVuSans-Oblique-59" d="M 403 4666 
L 1081 4666 
L 1953 2747 
L 3616 4666 
L 4325 4666 
L 2209 2222 
L 1778 0 
L 1147 0 
L 1575 2222 
L 403 4666 
z
" transform="scale(0.015625)"/>
      <path id="DejaVuSans-28" d="M 1984 4856 
Q 1566 4138 1362 3434 
Q 1159 2731 1159 2009 
Q 1159 1288 1364 580 
Q 1569 -128 1984 -844 
L 1484 -844 
Q 1016 -109 783 600 
Q 550 1309 550 2009 
Q 550 2706 781 3412 
Q 1013 4119 1484 4856 
L 1984 4856 
z
" transform="scale(0.015625)"/>
      <path id="DejaVuSans-6e" d="M 3513 2113 
L 3513 0 
L 2938 0 
L 2938 2094 
Q 2938 2591 2744 2837 
Q 2550 3084 2163 3084 
Q 1697 3084 1428 2787 
Q 1159 2491 1159 1978 
L 1159 0 
L 581 0 
L 581 3500 
L 1159 3500 
L 1159 2956 
Q 1366 3272 1645 3428 
Q 1925 3584 2291 3584 
Q 2894 3584 3203 3211 
Q 3513 2838 3513 2113 
z
" transform="scale(0.015625)"/>
      <path id="DejaVuSans-6c" d="M 603 4863 
L 1178 4863 
L 1178 0 
L 603 0 
L 603 4863 
z
" transform="scale(0.015625)"/>
      <path id="DejaVuSans-29" d="M 513 4856 
L 1013 4856 
Q 1481 4119 1714 3412 
Q 1947 2706 1947 2009 
Q 1947 1309 1714 600 
Q 1481 -109 1013 -844 
L 513 -844 
Q 928 -128 1133 580 
Q 1338 1288 1338 2009 
Q 1338 2731 1133 3434 
Q 928 4138 513 4856 
z
" transform="scale(0.015625)"/>
     </defs>
     <use xlink:href="#DejaVuSans-45" transform="translate(0 0.015625)"/>
     <use xlink:href="#DejaVuSans-73" transform="translate(63.183594 0.015625)"/>
     <use xlink:href="#DejaVuSans-74" transform="translate(115.283203 0.015625)"/>
     <use xlink:href="#DejaVuSans-69" transform="translate(154.492188 0.015625)"/>
     <use xlink:href="#DejaVuSans-6d" transform="translate(182.275391 0.015625)"/>
     <use xlink:href="#DejaVuSans-61" transform="translate(279.6875 0.015625)"/>
     <use xlink:href="#DejaVuSans-64" transform="translate(340.966797 0.015625)"/>
     <use xlink:href="#DejaVuSans-6f" transform="translate(404.443359 0.015625)"/>
     <use xlink:href="#DejaVuSans-72" transform="translate(465.625 0.015625)"/>
     <use xlink:href="#DejaVuSans-20" transform="translate(506.738281 0.015625)"/>
     <use xlink:href="#DejaVuSans-4d" transform="translate(538.525391 0.015625)"/>
     <use xlink:href="#DejaVuSans-4d" transform="translate(624.804688 0.015625)"/>
     <use xlink:href="#DejaVuSans-53" transform="translate(711.083984 0.015625)"/>
     <use xlink:href="#DejaVuSans-45" transform="translate(774.560547 0.015625)"/>
     <use xlink:href="#DejaVuSans-20" transform="translate(837.744141 0.015625)"/>
     <use xlink:href="#DejaVuSans-64" transform="translate(869.53125 0.015625)"/>
     <use xlink:href="#DejaVuSans-65" transform="translate(933.007812 0.015625)"/>
     <use xlink:href="#DejaVuSans-20" transform="translate(994.53125 0.015625)"/>
     <use xlink:href="#DejaVuSans-Oblique-58" transform="translate(1026.318359 0.015625)"/>
     <use xlink:href="#DejaVuSans-20" transform="translate(1094.824219 0.015625)"/>
     <use xlink:href="#DejaVuSans-64" transform="translate(1126.611328 0.015625)"/>
     <use xlink:href="#DejaVuSans-61" transform="translate(1190.087891 0.015625)"/>
     <use xlink:href="#DejaVuSans-64" transform="translate(1251.367188 0.015625)"/>
     <use xlink:href="#DejaVuSans-6f" transform="translate(1314.84375 0.015625)"/>
     <use xlink:href="#DejaVuSans-20" transform="translate(1376.025391 0.015625)"/>
     <use xlink:href="#DejaVuSans-Oblique-59" transform="translate(1407.8125 0.015625)"/>
     <use xlink:href="#DejaVuSans-20" transform="translate(1468.896484 0.015625)"/>
     <use xlink:href="#DejaVuSans-28" transform="translate(1500.683594 0.015625)"/>
     <use xlink:href="#DejaVuSans-6e" transform="translate(1539.697266 0.015625)"/>
     <use xlink:href="#DejaVuSans-6f" transform="translate(1603.076172 0.015625)"/>
     <use xlink:href="#DejaVuSans-20" transform="translate(1664.257812 0.015625)"/>
     <use xlink:href="#DejaVuSans-6c" transform="translate(1696.044922 0.015625)"/>
     <use xlink:href="#DejaVuSans-69" transform="translate(1723.828125 0.015625)"/>
     <use xlink:href="#DejaVuSans-6e" transform="translate(1751.611328 0.015625)"/>
     <use xlink:href="#DejaVuSans-65" transform="translate(1814.990234 0.015625)"/>
     <use xlink:href="#DejaVuSans-61" transform="translate(1876.513672 0.015625)"/>
     <use xlink:href="#DejaVuSans-6c" transform="translate(1937.792969 0.015625)"/>
     <use xlink:href="#DejaVuSans-29" transform="translate(1965.576172 0.015625)"/>
    </g>
   </g>
   <g id="legend_1">
    <g id="line2d_22">
     <path d="M 54.439375 36.459938 
L 63.439375 36.459938 
L 72.439375 36.459938 
" style="fill: none; stroke: #f0883e; stroke-width: 2.2; stroke-linecap: square"/>
    </g>
    <g id="text_16">
     <!-- $\hat x_{MMSE}(y)$ (a trozos) -->
     <g style="fill: #78829a" transform="translate(79.639375 39.609938) scale(0.09 -0.09)">
      <defs>
       <path id="DejaVuSans-302" d="M -1831 5119 
L -1369 5119 
L -603 3944 
L -1038 3944 
L -1600 4709 
L -2163 3944 
L -2597 3944 
L -1831 5119 
z
M -1600 3584 
L -1600 3584 
z
" transform="scale(0.015625)"/>
       <path id="DejaVuSans-Oblique-4d" d="M 1081 4666 
L 2028 4666 
L 2572 1522 
L 4378 4666 
L 5350 4666 
L 4441 0 
L 3828 0 
L 4622 4091 
L 2791 897 
L 2175 897 
L 1581 4103 
L 788 0 
L 172 0 
L 1081 4666 
z
" transform="scale(0.015625)"/>
       <path id="DejaVuSans-Oblique-53" d="M 3859 4513 
L 3738 3897 
Q 3422 4066 3111 4152 
Q 2800 4238 2509 4238 
Q 1944 4238 1609 3991 
Q 1275 3744 1275 3334 
Q 1275 3109 1398 2989 
Q 1522 2869 2034 2731 
L 2413 2638 
Q 3053 2472 3303 2217 
Q 3553 1963 3553 1503 
Q 3553 797 2998 353 
Q 2444 -91 1538 -91 
Q 1166 -91 791 -17 
Q 416 56 38 206 
L 166 856 
Q 513 641 861 531 
Q 1209 422 1556 422 
Q 2147 422 2503 684 
Q 2859 947 2859 1369 
Q 2859 1650 2717 1795 
Q 2575 1941 2106 2059 
L 1728 2156 
Q 1081 2325 845 2545 
Q 609 2766 609 3163 
Q 609 3859 1145 4304 
Q 1681 4750 2541 4750 
Q 2875 4750 3203 4690 
Q 3531 4631 3859 4513 
z
" transform="scale(0.015625)"/>
       <path id="DejaVuSans-Oblique-45" d="M 1081 4666 
L 4031 4666 
L 3928 4134 
L 1606 4134 
L 1338 2753 
L 3566 2753 
L 3463 2222 
L 1234 2222 
L 909 531 
L 3284 531 
L 3181 0 
L 172 0 
L 1081 4666 
z
" transform="scale(0.015625)"/>
       <path id="DejaVuSans-7a" d="M 353 3500 
L 3084 3500 
L 3084 2975 
L 922 459 
L 3084 459 
L 3084 0 
L 275 0 
L 275 525 
L 2438 3041 
L 353 3041 
L 353 3500 
z
" transform="scale(0.015625)"/>
      </defs>
      <use xlink:href="#DejaVuSans-302" transform="translate(64.226562 12.015625)"/>
      <use xlink:href="#DejaVuSans-Oblique-78" transform="translate(0 0.828125)"/>
      <use xlink:href="#DejaVuSans-Oblique-4d" transform="translate(63.550781 -15.578125) scale(0.7)"/>
      <use xlink:href="#DejaVuSans-Oblique-4d" transform="translate(123.946289 -15.578125) scale(0.7)"/>
      <use xlink:href="#DejaVuSans-Oblique-53" transform="translate(184.341797 -15.578125) scale(0.7)"/>
      <use xlink:href="#DejaVuSans-Oblique-45" transform="translate(228.775391 -15.578125) scale(0.7)"/>
      <use xlink:href="#DejaVuSans-28" transform="translate(275.738281 0.828125)"/>
      <use xlink:href="#DejaVuSans-Oblique-79" transform="translate(314.751953 0.828125)"/>
      <use xlink:href="#DejaVuSans-29" transform="translate(373.931641 0.828125)"/>
      <use xlink:href="#DejaVuSans-20" transform="translate(412.945312 0.828125)"/>
      <use xlink:href="#DejaVuSans-28" transform="translate(444.732422 0.828125)"/>
      <use xlink:href="#DejaVuSans-61" transform="translate(483.746094 0.828125)"/>
      <use xlink:href="#DejaVuSans-20" transform="translate(545.025391 0.828125)"/>
      <use xlink:href="#DejaVuSans-74" transform="translate(576.8125 0.828125)"/>
      <use xlink:href="#DejaVuSans-72" transform="translate(616.021484 0.828125)"/>
      <use xlink:href="#DejaVuSans-6f" transform="translate(657.134766 0.828125)"/>
      <use xlink:href="#DejaVuSans-7a" transform="translate(718.316406 0.828125)"/>
      <use xlink:href="#DejaVuSans-6f" transform="translate(770.806641 0.828125)"/>
      <use xlink:href="#DejaVuSans-73" transform="translate(831.988281 0.828125)"/>
      <use xlink:href="#DejaVuSans-29" transform="translate(884.087891 0.828125)"/>
     </g>
    </g>
   </g>
  </g>
 </g>
 <defs>
  <clipPath id="pa513db7da5">
   <rect x="46.339375" y="23.229938" width="368.26" height="250.12"/>
  </clipPath>
 </defs>
</svg>
