<?xml version="1.0" encoding="UTF-8"?>
<svg xmlns="http://www.w3.org/2000/svg" xmlns:xlink="http://www.w3.org/1999/xlink" width="854" height="480" viewBox="0 0 854 480">
<defs>
<g>
<g id="glyph-0-0">
<path d="M 4.664062 -7.195312 C 4.570312 -6.867188 4.472656 -6.496094 4.363281 -6.078125 C 4.253906 -5.660156 4.179688 -5.363281 4.140625 -5.1875 L 3.238281 -1.296875 C 3.230469 -1.261719 3.222656 -1.222656 3.21875 -1.183594 C 3.214844 -1.144531 3.214844 -1.109375 3.214844 -1.074219 C 3.214844 -0.960938 3.238281 -0.867188 3.292969 -0.789062 C 3.34375 -0.714844 3.40625 -0.660156 3.480469 -0.625 C 3.566406 -0.582031 3.730469 -0.539062 3.976562 -0.5 C 4.21875 -0.460938 4.414062 -0.4375 4.5625 -0.429688 L 4.457031 0 L 0.0703125 0 L 0.175781 -0.429688 C 0.308594 -0.4375 0.515625 -0.457031 0.796875 -0.484375 C 1.078125 -0.511719 1.273438 -0.542969 1.386719 -0.574219 C 1.503906 -0.609375 1.617188 -0.683594 1.730469 -0.804688 C 1.84375 -0.921875 1.917969 -1.0625 1.953125 -1.222656 L 3.023438 -5.859375 L 1.398438 -5.859375 L 1.515625 -6.375 L 1.875 -6.375 C 2.328125 -6.375 2.75 -6.449219 3.144531 -6.605469 C 3.539062 -6.757812 3.867188 -6.957031 4.121094 -7.195312 Z "/>
</g>
<g id="glyph-0-1">
<path d="M 7.84375 -4.539062 C 7.84375 -3.917969 7.734375 -3.316406 7.507812 -2.742188 C 7.285156 -2.164062 6.980469 -1.664062 6.59375 -1.238281 C 6.1875 -0.789062 5.722656 -0.4375 5.203125 -0.179688 C 4.679688 0.078125 4.085938 0.207031 3.417969 0.207031 C 2.550781 0.207031 1.871094 -0.0429688 1.378906 -0.539062 C 0.890625 -1.039062 0.644531 -1.664062 0.644531 -2.414062 C 0.644531 -3.070312 0.757812 -3.6875 0.984375 -4.261719 C 1.214844 -4.835938 1.53125 -5.34375 1.933594 -5.789062 C 2.328125 -6.222656 2.796875 -6.566406 3.34375 -6.816406 C 3.886719 -7.066406 4.464844 -7.195312 5.070312 -7.195312 C 5.960938 -7.195312 6.644531 -6.9375 7.125 -6.421875 C 7.605469 -5.90625 7.84375 -5.28125 7.84375 -4.539062 M 6.457031 -4.832031 C 6.457031 -5.445312 6.328125 -5.914062 6.0625 -6.230469 C 5.800781 -6.546875 5.441406 -6.707031 4.980469 -6.707031 C 4.503906 -6.707031 4.074219 -6.558594 3.691406 -6.265625 C 3.308594 -5.972656 2.988281 -5.5625 2.726562 -5.039062 C 2.503906 -4.582031 2.328125 -4.09375 2.210938 -3.566406 C 2.089844 -3.042969 2.03125 -2.566406 2.03125 -2.136719 C 2.03125 -1.554688 2.15625 -1.097656 2.410156 -0.769531 C 2.660156 -0.445312 3.03125 -0.28125 3.523438 -0.28125 C 3.972656 -0.28125 4.386719 -0.414062 4.765625 -0.679688 C 5.144531 -0.945312 5.476562 -1.367188 5.761719 -1.941406 C 6.003906 -2.421875 6.179688 -2.921875 6.292969 -3.4375 C 6.402344 -3.953125 6.457031 -4.417969 6.457031 -4.832031 Z "/>
</g>
<g id="glyph-0-2">
</g>
<g id="glyph-0-3">
<path d="M 7.253906 -4.085938 C 7.253906 -3.503906 7.152344 -2.953125 6.945312 -2.429688 C 6.742188 -1.910156 6.472656 -1.457031 6.132812 -1.074219 C 5.757812 -0.652344 5.347656 -0.339844 4.910156 -0.136719 C 4.46875 0.0664062 4.015625 0.167969 3.550781 0.167969 C 3.179688 0.167969 2.875 0.125 2.636719 0.03125 C 2.398438 -0.0585938 2.183594 -0.171875 2 -0.304688 L 1.617188 1.398438 C 1.59375 1.507812 1.570312 1.609375 1.554688 1.707031 C 1.539062 1.800781 1.53125 1.878906 1.53125 1.933594 C 1.53125 2.050781 1.574219 2.144531 1.660156 2.214844 C 1.746094 2.28125 1.839844 2.332031 1.949219 2.363281 C 2.058594 2.398438 2.179688 2.425781 2.316406 2.441406 C 2.449219 2.457031 2.570312 2.472656 2.679688 2.480469 L 2.589844 2.890625 L -1.003906 2.890625 L -0.910156 2.480469 C -0.773438 2.472656 -0.640625 2.460938 -0.519531 2.449219 C -0.398438 2.433594 -0.285156 2.414062 -0.175781 2.382812 C -0.0429688 2.34375 0.0664062 2.269531 0.148438 2.164062 C 0.226562 2.058594 0.285156 1.925781 0.320312 1.769531 L 1.679688 -4.222656 C 1.710938 -4.390625 1.746094 -4.554688 1.777344 -4.722656 C 1.804688 -4.890625 1.820312 -5.035156 1.820312 -5.15625 C 1.820312 -5.398438 1.785156 -5.5625 1.707031 -5.644531 C 1.632812 -5.726562 1.46875 -5.769531 1.214844 -5.769531 C 1.121094 -5.769531 1 -5.75 0.851562 -5.710938 C 0.703125 -5.675781 0.589844 -5.648438 0.507812 -5.625 L 0.605469 -6.042969 C 0.933594 -6.1875 1.234375 -6.304688 1.496094 -6.382812 C 1.761719 -6.464844 1.988281 -6.503906 2.175781 -6.503906 C 2.480469 -6.503906 2.707031 -6.425781 2.863281 -6.273438 C 3.019531 -6.117188 3.117188 -5.90625 3.15625 -5.628906 L 3.210938 -5.628906 C 3.503906 -5.90625 3.820312 -6.128906 4.15625 -6.308594 C 4.492188 -6.488281 4.828125 -6.574219 5.164062 -6.574219 C 5.824219 -6.574219 6.335938 -6.351562 6.703125 -5.902344 C 7.070312 -5.453125 7.253906 -4.847656 7.253906 -4.085938 M 5.222656 -1.394531 C 5.441406 -1.75 5.613281 -2.15625 5.734375 -2.609375 C 5.851562 -3.0625 5.910156 -3.546875 5.910156 -4.054688 C 5.910156 -4.285156 5.890625 -4.515625 5.847656 -4.746094 C 5.808594 -4.980469 5.742188 -5.171875 5.652344 -5.324219 C 5.554688 -5.496094 5.425781 -5.625 5.261719 -5.71875 C 5.09375 -5.8125 4.878906 -5.859375 4.609375 -5.859375 C 4.410156 -5.859375 4.191406 -5.796875 3.949219 -5.675781 C 3.707031 -5.554688 3.414062 -5.328125 3.066406 -4.992188 L 2.234375 -1.296875 C 2.265625 -1.050781 2.398438 -0.816406 2.636719 -0.601562 C 2.871094 -0.386719 3.15625 -0.28125 3.492188 -0.28125 C 3.835938 -0.28125 4.15625 -0.378906 4.453125 -0.578125 C 4.753906 -0.78125 5.007812 -1.050781 5.222656 -1.394531 Z "/>
</g>
<g id="glyph-0-4">
<path d="M 6.027344 -5.21875 C 6.027344 -4.757812 5.882812 -4.363281 5.59375 -4.03125 C 5.308594 -3.703125 4.886719 -3.4375 4.335938 -3.242188 C 3.933594 -3.09375 3.523438 -2.976562 3.113281 -2.882812 C 2.699219 -2.792969 2.242188 -2.71875 1.746094 -2.65625 C 1.746094 -1.96875 1.871094 -1.445312 2.125 -1.085938 C 2.378906 -0.722656 2.75 -0.539062 3.242188 -0.539062 C 3.675781 -0.539062 4.058594 -0.648438 4.390625 -0.867188 C 4.722656 -1.082031 5.050781 -1.40625 5.371094 -1.835938 L 5.742188 -1.5625 C 5.394531 -1.03125 4.960938 -0.609375 4.441406 -0.292969 C 3.917969 0.0234375 3.378906 0.183594 2.820312 0.183594 C 2.050781 0.183594 1.464844 -0.03125 1.058594 -0.460938 C 0.652344 -0.894531 0.449219 -1.503906 0.449219 -2.292969 C 0.449219 -2.839844 0.535156 -3.363281 0.707031 -3.859375 C 0.878906 -4.359375 1.128906 -4.8125 1.457031 -5.226562 C 1.78125 -5.628906 2.171875 -5.957031 2.640625 -6.203125 C 3.105469 -6.453125 3.621094 -6.574219 4.1875 -6.574219 C 4.8125 -6.574219 5.273438 -6.449219 5.574219 -6.195312 C 5.878906 -5.941406 6.027344 -5.613281 6.027344 -5.21875 M 4.832031 -5.378906 C 4.832031 -5.546875 4.808594 -5.679688 4.757812 -5.777344 C 4.710938 -5.875 4.652344 -5.949219 4.578125 -5.996094 C 4.5 -6.046875 4.417969 -6.082031 4.328125 -6.09375 C 4.242188 -6.105469 4.152344 -6.113281 4.0625 -6.113281 C 3.542969 -6.113281 3.0625 -5.828125 2.621094 -5.253906 C 2.179688 -4.683594 1.902344 -3.972656 1.785156 -3.117188 C 2.085938 -3.160156 2.429688 -3.222656 2.8125 -3.304688 C 3.195312 -3.382812 3.511719 -3.488281 3.761719 -3.617188 C 4.125 -3.804688 4.390625 -4.042969 4.566406 -4.335938 C 4.742188 -4.628906 4.832031 -4.976562 4.832031 -5.378906 Z "/>
</g>
<g id="glyph-0-5">
<path d="M 6.210938 -5.515625 C 6.210938 -5.394531 6.195312 -5.257812 6.160156 -5.113281 C 6.125 -4.96875 6.074219 -4.847656 6.007812 -4.753906 C 5.929688 -4.636719 5.84375 -4.546875 5.75 -4.484375 C 5.660156 -4.417969 5.523438 -4.386719 5.351562 -4.386719 C 5.117188 -4.386719 4.941406 -4.445312 4.824219 -4.5625 C 4.707031 -4.679688 4.648438 -4.8125 4.648438 -4.953125 C 4.648438 -5.089844 4.679688 -5.238281 4.746094 -5.40625 C 4.8125 -5.574219 4.878906 -5.738281 4.949219 -5.90625 C 4.894531 -5.90625 4.808594 -5.890625 4.691406 -5.863281 C 4.570312 -5.835938 4.425781 -5.777344 4.257812 -5.695312 C 4.089844 -5.613281 3.898438 -5.488281 3.683594 -5.324219 C 3.46875 -5.160156 3.242188 -4.941406 3 -4.667969 L 1.949219 0 L 0.734375 0 L 1.683594 -4.222656 C 1.707031 -4.328125 1.738281 -4.484375 1.78125 -4.691406 C 1.820312 -4.902344 1.839844 -5.054688 1.839844 -5.15625 C 1.839844 -5.398438 1.800781 -5.5625 1.71875 -5.644531 C 1.636719 -5.726562 1.46875 -5.769531 1.222656 -5.769531 C 1.128906 -5.769531 1.007812 -5.75 0.859375 -5.71875 C 0.710938 -5.6875 0.597656 -5.660156 0.515625 -5.636719 L 0.613281 -6.054688 C 0.949219 -6.207031 1.25 -6.320312 1.511719 -6.394531 C 1.769531 -6.46875 1.996094 -6.503906 2.179688 -6.503906 C 2.527344 -6.503906 2.773438 -6.410156 2.921875 -6.21875 C 3.070312 -6.03125 3.144531 -5.746094 3.144531 -5.371094 L 3.183594 -5.371094 C 3.699219 -5.816406 4.089844 -6.128906 4.359375 -6.308594 C 4.625 -6.488281 4.90625 -6.574219 5.195312 -6.574219 C 5.335938 -6.574219 5.46875 -6.558594 5.597656 -6.523438 C 5.730469 -6.488281 5.839844 -6.429688 5.929688 -6.347656 C 6.027344 -6.257812 6.097656 -6.152344 6.140625 -6.03125 C 6.1875 -5.914062 6.210938 -5.738281 6.210938 -5.515625 Z "/>
</g>
<g id="glyph-0-6">
<path d="M 2.355469 0.195312 C 1.714844 0.195312 1.179688 0.0820312 0.75 -0.148438 C 0.324219 -0.375 0.109375 -0.671875 0.109375 -1.042969 C 0.109375 -1.214844 0.171875 -1.378906 0.300781 -1.53125 C 0.425781 -1.683594 0.578125 -1.757812 0.761719 -1.757812 C 0.933594 -1.757812 1.074219 -1.71875 1.179688 -1.636719 C 1.289062 -1.558594 1.371094 -1.460938 1.433594 -1.355469 C 1.496094 -1.242188 1.554688 -1.105469 1.605469 -0.949219 C 1.65625 -0.792969 1.695312 -0.667969 1.730469 -0.566406 C 1.796875 -0.492188 1.886719 -0.425781 2 -0.359375 C 2.117188 -0.296875 2.28125 -0.265625 2.5 -0.265625 C 2.96875 -0.265625 3.324219 -0.382812 3.5625 -0.621094 C 3.804688 -0.855469 3.925781 -1.171875 3.925781 -1.574219 C 3.925781 -1.867188 3.8125 -2.105469 3.585938 -2.28125 C 3.363281 -2.457031 3.023438 -2.617188 2.578125 -2.765625 C 2.417969 -2.816406 2.230469 -2.898438 2.011719 -3.003906 C 1.792969 -3.109375 1.621094 -3.226562 1.492188 -3.347656 C 1.335938 -3.484375 1.207031 -3.652344 1.113281 -3.84375 C 1.019531 -4.035156 0.96875 -4.261719 0.96875 -4.519531 C 0.96875 -5.078125 1.21875 -5.558594 1.714844 -5.964844 C 2.210938 -6.371094 2.824219 -6.574219 3.546875 -6.574219 C 3.71875 -6.574219 3.898438 -6.566406 4.09375 -6.550781 C 4.289062 -6.53125 4.503906 -6.484375 4.738281 -6.40625 C 4.945312 -6.335938 5.117188 -6.234375 5.261719 -6.097656 C 5.402344 -5.960938 5.476562 -5.785156 5.476562 -5.566406 C 5.476562 -5.386719 5.414062 -5.226562 5.296875 -5.082031 C 5.175781 -4.9375 5.019531 -4.863281 4.824219 -4.863281 C 4.664062 -4.863281 4.53125 -4.898438 4.425781 -4.96875 C 4.324219 -5.035156 4.234375 -5.128906 4.167969 -5.246094 C 4.097656 -5.363281 4.039062 -5.492188 3.996094 -5.625 C 3.953125 -5.757812 3.90625 -5.890625 3.855469 -6.023438 C 3.773438 -6.058594 3.699219 -6.082031 3.632812 -6.09375 C 3.566406 -6.105469 3.480469 -6.113281 3.371094 -6.113281 C 2.945312 -6.113281 2.625 -6 2.40625 -5.769531 C 2.1875 -5.542969 2.078125 -5.269531 2.078125 -4.957031 C 2.078125 -4.652344 2.175781 -4.425781 2.375 -4.269531 C 2.570312 -4.117188 2.898438 -3.957031 3.351562 -3.789062 C 3.941406 -3.578125 4.371094 -3.332031 4.640625 -3.058594 C 4.90625 -2.785156 5.039062 -2.445312 5.039062 -2.042969 C 5.039062 -1.382812 4.785156 -0.84375 4.277344 -0.425781 C 3.769531 -0.0117188 3.128906 0.195312 2.355469 0.195312 Z "/>
</g>
<g id="glyph-0-7">
<path d="M 6.726562 -4.015625 C 6.726562 -3.5 6.636719 -2.988281 6.464844 -2.476562 C 6.292969 -1.964844 6.039062 -1.515625 5.710938 -1.128906 C 5.375 -0.726562 4.972656 -0.40625 4.5 -0.167969 C 4.03125 0.0742188 3.484375 0.195312 2.863281 0.195312 C 2.144531 0.195312 1.558594 -0.0390625 1.109375 -0.503906 C 0.660156 -0.96875 0.4375 -1.59375 0.4375 -2.378906 C 0.4375 -2.957031 0.53125 -3.496094 0.722656 -3.996094 C 0.914062 -4.496094 1.167969 -4.933594 1.492188 -5.3125 C 1.816406 -5.6875 2.21875 -5.996094 2.699219 -6.226562 C 3.179688 -6.460938 3.699219 -6.574219 4.257812 -6.574219 C 5.03125 -6.574219 5.632812 -6.339844 6.070312 -5.867188 C 6.507812 -5.398438 6.726562 -4.777344 6.726562 -4.015625 M 5.398438 -4.261719 C 5.398438 -4.878906 5.289062 -5.34375 5.066406 -5.652344 C 4.847656 -5.960938 4.535156 -6.113281 4.121094 -6.113281 C 3.761719 -6.113281 3.421875 -6.003906 3.101562 -5.78125 C 2.78125 -5.558594 2.507812 -5.199219 2.277344 -4.699219 C 2.101562 -4.320312 1.96875 -3.902344 1.886719 -3.4375 C 1.804688 -2.976562 1.765625 -2.546875 1.765625 -2.15625 C 1.765625 -1.535156 1.871094 -1.066406 2.085938 -0.746094 C 2.300781 -0.425781 2.625 -0.265625 3.058594 -0.265625 C 3.445312 -0.265625 3.789062 -0.386719 4.089844 -0.632812 C 4.386719 -0.875 4.632812 -1.183594 4.816406 -1.558594 C 5.003906 -1.921875 5.148438 -2.339844 5.246094 -2.8125 C 5.347656 -3.285156 5.398438 -3.765625 5.398438 -4.261719 Z "/>
</g>
<g id="glyph-0-8">
<path d="M 7.480469 -0.753906 L 7.382812 -0.339844 C 6.992188 -0.183594 6.683594 -0.0664062 6.46875 0.00390625 C 6.25 0.0742188 6.03125 0.109375 5.808594 0.109375 C 5.460938 0.109375 5.199219 0.0195312 5.023438 -0.160156 C 4.851562 -0.339844 4.761719 -0.5625 4.761719 -0.828125 C 4.761719 -0.921875 4.769531 -1.027344 4.789062 -1.144531 C 4.804688 -1.257812 4.835938 -1.394531 4.875 -1.550781 L 5.515625 -3.980469 C 5.566406 -4.167969 5.601562 -4.339844 5.632812 -4.492188 C 5.660156 -4.644531 5.671875 -4.765625 5.671875 -4.855469 C 5.671875 -5.148438 5.605469 -5.378906 5.46875 -5.546875 C 5.328125 -5.714844 5.125 -5.800781 4.851562 -5.800781 C 4.589844 -5.800781 4.296875 -5.714844 3.96875 -5.539062 C 3.640625 -5.367188 3.332031 -5.113281 3.042969 -4.785156 L 1.933594 0 L 0.714844 0 L 1.691406 -4.222656 C 1.714844 -4.328125 1.746094 -4.480469 1.785156 -4.675781 C 1.828125 -4.875 1.847656 -5.035156 1.847656 -5.15625 C 1.847656 -5.398438 1.808594 -5.5625 1.726562 -5.644531 C 1.640625 -5.726562 1.476562 -5.769531 1.226562 -5.769531 C 1.132812 -5.769531 1.007812 -5.75 0.859375 -5.71875 C 0.714844 -5.6875 0.597656 -5.660156 0.515625 -5.636719 L 0.613281 -6.054688 C 0.953125 -6.207031 1.253906 -6.320312 1.515625 -6.394531 C 1.777344 -6.46875 2.003906 -6.503906 2.191406 -6.503906 C 2.535156 -6.503906 2.78125 -6.410156 2.929688 -6.222656 C 3.078125 -6.035156 3.15625 -5.777344 3.164062 -5.449219 L 3.203125 -5.449219 C 3.679688 -5.832031 4.089844 -6.113281 4.4375 -6.296875 C 4.78125 -6.484375 5.175781 -6.574219 5.617188 -6.574219 C 6.03125 -6.574219 6.355469 -6.453125 6.589844 -6.214844 C 6.824219 -5.972656 6.941406 -5.65625 6.941406 -5.265625 C 6.941406 -5.1875 6.929688 -5.046875 6.902344 -4.847656 C 6.878906 -4.648438 6.84375 -4.449219 6.789062 -4.253906 L 6.242188 -2.164062 C 6.203125 -2.023438 6.164062 -1.863281 6.128906 -1.683594 C 6.089844 -1.503906 6.074219 -1.363281 6.074219 -1.265625 C 6.074219 -1.015625 6.128906 -0.847656 6.234375 -0.757812 C 6.34375 -0.667969 6.523438 -0.625 6.769531 -0.625 C 6.851562 -0.625 6.972656 -0.640625 7.125 -0.667969 C 7.28125 -0.695312 7.398438 -0.726562 7.480469 -0.753906 Z "/>
</g>
<g id="glyph-0-9">
<path d="M 4.527344 -0.859375 L 4.480469 -0.859375 C 4.386719 -0.78125 4.269531 -0.683594 4.140625 -0.5625 C 4.007812 -0.445312 3.851562 -0.332031 3.675781 -0.222656 C 3.503906 -0.113281 3.320312 -0.0195312 3.121094 0.0625 C 2.921875 0.140625 2.707031 0.183594 2.472656 0.183594 C 1.84375 0.183594 1.351562 -0.0429688 0.992188 -0.496094 C 0.632812 -0.949219 0.457031 -1.5625 0.457031 -2.347656 C 0.457031 -2.886719 0.554688 -3.410156 0.753906 -3.917969 C 0.953125 -4.425781 1.230469 -4.882812 1.582031 -5.285156 C 1.914062 -5.671875 2.3125 -5.984375 2.773438 -6.21875 C 3.230469 -6.457031 3.703125 -6.574219 4.191406 -6.574219 C 4.5 -6.574219 4.792969 -6.535156 5.070312 -6.453125 C 5.351562 -6.371094 5.570312 -6.277344 5.730469 -6.171875 L 6.925781 -6.476562 L 7.003906 -6.378906 L 6.011719 -2.175781 C 5.980469 -2.042969 5.941406 -1.878906 5.90625 -1.683594 C 5.867188 -1.492188 5.851562 -1.347656 5.851562 -1.257812 C 5.851562 -1.007812 5.902344 -0.84375 6.007812 -0.753906 C 6.109375 -0.667969 6.289062 -0.625 6.535156 -0.625 C 6.617188 -0.625 6.734375 -0.636719 6.886719 -0.664062 C 7.039062 -0.691406 7.15625 -0.71875 7.238281 -0.75 L 7.140625 -0.332031 C 6.75 -0.175781 6.457031 -0.0625 6.265625 0.0078125 C 6.078125 0.0742188 5.84375 0.109375 5.570312 0.109375 C 5.257812 0.109375 5.007812 0.0195312 4.824219 -0.164062 C 4.644531 -0.34375 4.542969 -0.578125 4.527344 -0.859375 M 5.464844 -4.980469 C 5.464844 -5.121094 5.449219 -5.257812 5.417969 -5.390625 C 5.386719 -5.519531 5.324219 -5.640625 5.230469 -5.753906 C 5.144531 -5.863281 5.023438 -5.949219 4.871094 -6.015625 C 4.71875 -6.082031 4.527344 -6.113281 4.296875 -6.113281 C 3.980469 -6.113281 3.671875 -6.007812 3.375 -5.800781 C 3.074219 -5.59375 2.804688 -5.3125 2.566406 -4.960938 C 2.339844 -4.628906 2.15625 -4.230469 2.011719 -3.761719 C 1.867188 -3.289062 1.796875 -2.816406 1.796875 -2.332031 C 1.796875 -2.066406 1.8125 -1.832031 1.84375 -1.628906 C 1.871094 -1.425781 1.929688 -1.238281 2.019531 -1.066406 C 2.101562 -0.902344 2.21875 -0.773438 2.375 -0.683594 C 2.53125 -0.59375 2.726562 -0.546875 2.964844 -0.546875 C 3.210938 -0.546875 3.464844 -0.617188 3.730469 -0.753906 C 3.996094 -0.890625 4.296875 -1.128906 4.628906 -1.472656 Z "/>
</g>
<g id="glyph-0-10">
<path d="M 2.820312 -3.640625 C 2.820312 -3.394531 2.730469 -3.1875 2.554688 -3.015625 C 2.378906 -2.847656 2.171875 -2.761719 1.925781 -2.761719 C 1.683594 -2.761719 1.472656 -2.847656 1.296875 -3.015625 C 1.125 -3.1875 1.035156 -3.394531 1.035156 -3.640625 C 1.035156 -3.882812 1.125 -4.09375 1.296875 -4.265625 C 1.472656 -4.445312 1.683594 -4.53125 1.925781 -4.53125 C 2.171875 -4.53125 2.378906 -4.445312 2.554688 -4.265625 C 2.730469 -4.09375 2.820312 -3.882812 2.820312 -3.640625 Z "/>
</g>
<g id="glyph-0-11">
<path d="M 2.898438 0.183594 C 2.136719 0.183594 1.539062 -0.0390625 1.097656 -0.484375 C 0.65625 -0.925781 0.4375 -1.554688 0.4375 -2.371094 C 0.4375 -2.914062 0.519531 -3.4375 0.6875 -3.933594 C 0.855469 -4.429688 1.085938 -4.871094 1.386719 -5.257812 C 1.6875 -5.644531 2.066406 -5.960938 2.523438 -6.207031 C 2.980469 -6.453125 3.488281 -6.574219 4.050781 -6.574219 C 4.671875 -6.574219 5.140625 -6.445312 5.464844 -6.179688 C 5.789062 -5.917969 5.949219 -5.589844 5.949219 -5.1875 C 5.949219 -4.890625 5.878906 -4.625 5.738281 -4.402344 C 5.597656 -4.175781 5.386719 -4.0625 5.105469 -4.0625 C 4.871094 -4.0625 4.695312 -4.121094 4.578125 -4.238281 C 4.460938 -4.355469 4.402344 -4.484375 4.402344 -4.628906 C 4.402344 -4.765625 4.449219 -4.953125 4.542969 -5.195312 C 4.636719 -5.433594 4.710938 -5.628906 4.765625 -5.777344 C 4.71875 -5.894531 4.613281 -5.976562 4.445312 -6.03125 C 4.28125 -6.085938 4.109375 -6.113281 3.933594 -6.113281 C 3.34375 -6.113281 2.832031 -5.769531 2.40625 -5.082031 C 1.976562 -4.394531 1.765625 -3.550781 1.765625 -2.550781 C 1.765625 -1.9375 1.902344 -1.445312 2.179688 -1.085938 C 2.453125 -0.722656 2.828125 -0.539062 3.296875 -0.539062 C 3.71875 -0.539062 4.09375 -0.652344 4.421875 -0.878906 C 4.75 -1.105469 5.0625 -1.421875 5.363281 -1.835938 L 5.734375 -1.5625 C 5.4375 -1.089844 5.027344 -0.679688 4.515625 -0.335938 C 4 0.0078125 3.460938 0.183594 2.898438 0.183594 Z "/>
</g>
<g id="glyph-0-12">
<path d="M 4.585938 -0.894531 L 4.539062 -0.894531 C 4.445312 -0.808594 4.320312 -0.703125 4.167969 -0.570312 C 4.015625 -0.4375 3.859375 -0.320312 3.695312 -0.222656 C 3.484375 -0.0898438 3.292969 0.0078125 3.117188 0.078125 C 2.941406 0.148438 2.726562 0.183594 2.472656 0.183594 C 1.84375 0.183594 1.351562 -0.0429688 0.992188 -0.5 C 0.632812 -0.953125 0.457031 -1.570312 0.457031 -2.351562 C 0.457031 -2.898438 0.550781 -3.429688 0.746094 -3.9375 C 0.9375 -4.445312 1.203125 -4.894531 1.535156 -5.292969 C 1.863281 -5.675781 2.253906 -5.984375 2.710938 -6.21875 C 3.171875 -6.457031 3.648438 -6.574219 4.148438 -6.574219 C 4.449219 -6.574219 4.746094 -6.535156 5.039062 -6.457031 C 5.335938 -6.378906 5.578125 -6.285156 5.769531 -6.171875 L 6.277344 -8.386719 C 6.304688 -8.503906 6.324219 -8.59375 6.332031 -8.660156 C 6.34375 -8.722656 6.351562 -8.796875 6.351562 -8.875 C 6.351562 -9.03125 6.320312 -9.148438 6.253906 -9.230469 C 6.191406 -9.3125 6.105469 -9.375 5.992188 -9.414062 C 5.886719 -9.453125 5.746094 -9.480469 5.5625 -9.492188 C 5.378906 -9.503906 5.214844 -9.519531 5.066406 -9.539062 L 5.160156 -9.933594 L 7.796875 -10.078125 L 7.859375 -9.980469 L 6.054688 -2.175781 C 6.019531 -2.03125 5.984375 -1.867188 5.949219 -1.683594 C 5.910156 -1.5 5.890625 -1.359375 5.890625 -1.261719 C 5.890625 -1.015625 5.945312 -0.847656 6.046875 -0.757812 C 6.152344 -0.667969 6.328125 -0.625 6.574219 -0.625 C 6.65625 -0.625 6.773438 -0.636719 6.925781 -0.664062 C 7.078125 -0.691406 7.195312 -0.71875 7.277344 -0.75 L 7.179688 -0.332031 C 6.816406 -0.167969 6.511719 -0.0507812 6.273438 0.0117188 C 6.035156 0.078125 5.8125 0.109375 5.609375 0.109375 C 5.296875 0.109375 5.046875 0.0273438 4.863281 -0.132812 C 4.675781 -0.296875 4.585938 -0.550781 4.585938 -0.894531 M 5.511719 -5.042969 C 5.503906 -5.171875 5.46875 -5.292969 5.414062 -5.414062 C 5.355469 -5.53125 5.285156 -5.640625 5.199219 -5.734375 C 5.097656 -5.84375 4.96875 -5.933594 4.8125 -6.003906 C 4.652344 -6.078125 4.464844 -6.113281 4.246094 -6.113281 C 3.914062 -6.113281 3.597656 -6.007812 3.300781 -5.800781 C 3 -5.59375 2.738281 -5.3125 2.515625 -4.964844 C 2.296875 -4.632812 2.121094 -4.226562 1.992188 -3.757812 C 1.863281 -3.285156 1.796875 -2.8125 1.796875 -2.339844 C 1.796875 -2.074219 1.8125 -1.839844 1.84375 -1.636719 C 1.871094 -1.429688 1.929688 -1.242188 2.019531 -1.066406 C 2.101562 -0.90625 2.21875 -0.78125 2.371094 -0.6875 C 2.523438 -0.59375 2.722656 -0.546875 2.976562 -0.546875 C 3.214844 -0.546875 3.472656 -0.617188 3.753906 -0.761719 C 4.03125 -0.90625 4.34375 -1.15625 4.6875 -1.511719 Z "/>
</g>
<g id="glyph-0-13">
<path d="M 4.605469 -0.910156 L 4.566406 -0.910156 C 4.363281 -0.75 4.175781 -0.601562 3.992188 -0.46875 C 3.808594 -0.335938 3.628906 -0.222656 3.449219 -0.128906 C 3.242188 -0.0273438 3.054688 0.046875 2.882812 0.09375 C 2.714844 0.140625 2.492188 0.164062 2.21875 0.164062 C 1.804688 0.164062 1.480469 0.0429688 1.25 -0.199219 C 1.019531 -0.4375 0.90625 -0.753906 0.90625 -1.144531 C 0.90625 -1.25 0.914062 -1.375 0.929688 -1.515625 C 0.949219 -1.660156 0.988281 -1.871094 1.054688 -2.15625 L 1.558594 -4.21875 C 1.601562 -4.410156 1.640625 -4.578125 1.667969 -4.726562 C 1.695312 -4.875 1.710938 -5.015625 1.710938 -5.148438 C 1.710938 -5.394531 1.667969 -5.554688 1.589844 -5.632812 C 1.507812 -5.714844 1.34375 -5.753906 1.097656 -5.753906 C 1.003906 -5.753906 0.882812 -5.738281 0.734375 -5.699219 C 0.585938 -5.664062 0.472656 -5.632812 0.390625 -5.613281 L 0.488281 -6.03125 C 0.828125 -6.183594 1.125 -6.300781 1.382812 -6.378906 C 1.640625 -6.457031 1.847656 -6.496094 2.003906 -6.496094 C 2.351562 -6.496094 2.605469 -6.414062 2.769531 -6.253906 C 2.933594 -6.089844 3.015625 -5.859375 3.015625 -5.558594 C 3.015625 -5.480469 3.003906 -5.375 2.988281 -5.242188 C 2.972656 -5.105469 2.945312 -4.972656 2.910156 -4.835938 L 2.335938 -2.429688 C 2.292969 -2.246094 2.257812 -2.074219 2.230469 -1.917969 C 2.199219 -1.757812 2.1875 -1.636719 2.1875 -1.554688 C 2.1875 -1.265625 2.25 -1.035156 2.375 -0.867188 C 2.5 -0.695312 2.699219 -0.613281 2.972656 -0.613281 C 3.25 -0.613281 3.535156 -0.683594 3.828125 -0.828125 C 4.121094 -0.976562 4.414062 -1.195312 4.710938 -1.492188 L 5.84375 -6.394531 L 6.980469 -6.472656 L 7.058594 -6.375 L 6.089844 -2.179688 C 6.046875 -2.003906 6.007812 -1.824219 5.972656 -1.644531 C 5.9375 -1.464844 5.921875 -1.335938 5.921875 -1.261719 C 5.921875 -1.015625 5.972656 -0.847656 6.078125 -0.757812 C 6.1875 -0.667969 6.363281 -0.625 6.609375 -0.625 C 6.691406 -0.625 6.808594 -0.636719 6.960938 -0.664062 C 7.113281 -0.691406 7.230469 -0.71875 7.3125 -0.75 L 7.214844 -0.332031 C 6.851562 -0.183594 6.554688 -0.0742188 6.3125 0 C 6.070312 0.0742188 5.847656 0.109375 5.644531 0.109375 C 5.292969 0.109375 5.03125 0.0078125 4.859375 -0.195312 C 4.6875 -0.398438 4.605469 -0.636719 4.605469 -0.910156 Z "/>
</g>
<g id="glyph-0-14">
<path d="M 3.585938 -0.710938 L 3.488281 -0.292969 C 3.089844 -0.132812 2.769531 -0.0195312 2.53125 0.0429688 C 2.292969 0.105469 2.089844 0.136719 1.921875 0.136719 C 1.574219 0.136719 1.3125 0.046875 1.140625 -0.132812 C 0.964844 -0.3125 0.878906 -0.535156 0.878906 -0.800781 C 0.878906 -0.902344 0.886719 -1.007812 0.90625 -1.113281 C 0.921875 -1.222656 0.949219 -1.359375 0.988281 -1.523438 L 1.675781 -4.296875 C 1.710938 -4.449219 1.746094 -4.609375 1.777344 -4.785156 C 1.8125 -4.957031 1.828125 -5.105469 1.828125 -5.226562 C 1.828125 -5.46875 1.785156 -5.632812 1.707031 -5.710938 C 1.625 -5.792969 1.464844 -5.832031 1.214844 -5.832031 C 1.121094 -5.832031 0.992188 -5.816406 0.835938 -5.789062 C 0.679688 -5.757812 0.558594 -5.730469 0.476562 -5.710938 L 0.574219 -6.125 C 0.910156 -6.277344 1.214844 -6.390625 1.484375 -6.464844 C 1.753906 -6.539062 1.964844 -6.574219 2.121094 -6.574219 C 2.476562 -6.574219 2.734375 -6.492188 2.894531 -6.320312 C 3.054688 -6.152344 3.136719 -5.921875 3.136719 -5.636719 C 3.136719 -5.558594 3.128906 -5.453125 3.109375 -5.316406 C 3.09375 -5.183594 3.066406 -5.046875 3.03125 -4.914062 L 2.339844 -2.144531 C 2.296875 -1.972656 2.261719 -1.808594 2.226562 -1.644531 C 2.195312 -1.480469 2.179688 -1.347656 2.179688 -1.246094 C 2.179688 -0.996094 2.234375 -0.828125 2.34375 -0.734375 C 2.453125 -0.644531 2.632812 -0.597656 2.878906 -0.597656 C 2.960938 -0.597656 3.078125 -0.609375 3.234375 -0.632812 C 3.386719 -0.652344 3.503906 -0.679688 3.585938 -0.710938 M 4.050781 -9.035156 C 4.050781 -8.789062 3.96875 -8.574219 3.808594 -8.390625 C 3.648438 -8.203125 3.449219 -8.113281 3.210938 -8.113281 C 2.988281 -8.113281 2.796875 -8.199219 2.636719 -8.375 C 2.476562 -8.550781 2.394531 -8.753906 2.394531 -8.976562 C 2.394531 -9.214844 2.476562 -9.425781 2.636719 -9.601562 C 2.796875 -9.78125 2.988281 -9.871094 3.210938 -9.871094 C 3.457031 -9.871094 3.660156 -9.785156 3.816406 -9.617188 C 3.972656 -9.453125 4.050781 -9.257812 4.050781 -9.035156 Z "/>
</g>
<g id="glyph-0-15">
<path d="M 1.972656 0.136719 C 1.558594 0.136719 1.257812 0.0546875 1.066406 -0.113281 C 0.875 -0.28125 0.78125 -0.519531 0.78125 -0.832031 C 0.78125 -0.933594 0.789062 -1.027344 0.800781 -1.117188 C 0.8125 -1.207031 0.832031 -1.304688 0.851562 -1.417969 L 1.867188 -5.769531 L 0.703125 -5.769531 L 0.839844 -6.359375 L 2.027344 -6.359375 L 2.484375 -8.269531 L 3.652344 -8.269531 L 3.214844 -6.359375 L 5.027344 -6.359375 L 4.890625 -5.769531 L 3.09375 -5.769531 L 2.253906 -2.179688 C 2.214844 -2.015625 2.179688 -1.855469 2.15625 -1.703125 C 2.128906 -1.546875 2.117188 -1.417969 2.117188 -1.308594 C 2.117188 -1.070312 2.175781 -0.894531 2.292969 -0.785156 C 2.414062 -0.671875 2.628906 -0.617188 2.941406 -0.617188 C 3.054688 -0.617188 3.214844 -0.632812 3.417969 -0.660156 C 3.621094 -0.6875 3.78125 -0.726562 3.894531 -0.769531 L 3.78125 -0.292969 C 3.480469 -0.175781 3.191406 -0.0742188 2.921875 0.0078125 C 2.652344 0.09375 2.335938 0.136719 1.972656 0.136719 Z "/>
</g>
</g>
</defs>
<g fill="rgb(60.392157%, 63.921569%, 72.156863%)" fill-opacity="1">
<use xlink:href="#glyph-0-0" x="30" y="32.226562"/>
<use xlink:href="#glyph-0-1" x="36" y="32.226562"/>
<use xlink:href="#glyph-0-2" x="44" y="32.226562"/>
<use xlink:href="#glyph-0-1" x="47" y="32.226562"/>
<use xlink:href="#glyph-0-1" x="55" y="32.226562"/>
<use xlink:href="#glyph-0-1" x="63" y="32.226562"/>
<use xlink:href="#glyph-0-2" x="71" y="32.226562"/>
<use xlink:href="#glyph-0-3" x="74" y="32.226562"/>
<use xlink:href="#glyph-0-4" x="82" y="32.226562"/>
<use xlink:href="#glyph-0-5" x="88" y="32.226562"/>
<use xlink:href="#glyph-0-6" x="94" y="32.226562"/>
<use xlink:href="#glyph-0-7" x="100" y="32.226562"/>
<use xlink:href="#glyph-0-8" x="107" y="32.226562"/>
<use xlink:href="#glyph-0-9" x="115" y="32.226562"/>
<use xlink:href="#glyph-0-6" x="123" y="32.226562"/>
<use xlink:href="#glyph-0-2" x="129" y="32.226562"/>
<use xlink:href="#glyph-0-10" x="132" y="32.226562"/>
<use xlink:href="#glyph-0-2" x="136" y="32.226562"/>
<use xlink:href="#glyph-0-11" x="139" y="32.226562"/>
<use xlink:href="#glyph-0-9" x="145" y="32.226562"/>
<use xlink:href="#glyph-0-12" x="153" y="32.226562"/>
<use xlink:href="#glyph-0-9" x="161" y="32.226562"/>
<use xlink:href="#glyph-0-2" x="169" y="32.226562"/>
<use xlink:href="#glyph-0-11" x="172" y="32.226562"/>
<use xlink:href="#glyph-0-13" x="178" y="32.226562"/>
<use xlink:href="#glyph-0-9" x="186" y="32.226562"/>
<use xlink:href="#glyph-0-12" x="194" y="32.226562"/>
<use xlink:href="#glyph-0-5" x="202" y="32.226562"/>
<use xlink:href="#glyph-0-14" x="208" y="32.226562"/>
<use xlink:href="#glyph-0-15" x="212" y="32.226562"/>
<use xlink:href="#glyph-0-7" x="217" y="32.226562"/>
<use xlink:href="#glyph-0-2" x="224" y="32.226562"/>
<use xlink:href="#glyph-0-6" x="227" y="32.226562"/>
<use xlink:href="#glyph-0-7" x="233" y="32.226562"/>
<use xlink:href="#glyph-0-8" x="240" y="32.226562"/>
<use xlink:href="#glyph-0-2" x="248" y="32.226562"/>
<use xlink:href="#glyph-0-0" x="251" y="32.226562"/>
<use xlink:href="#glyph-0-1" x="257" y="32.226562"/>
</g>
</svg>
